<?xml version="1.0" encoding="UTF-8"?>
<svg width="24px" height="24px" viewBox="0 0 24 24" version="1.1" xmlns="http://www.w3.org/2000/svg" xmlns:xlink="http://www.w3.org/1999/xlink">
    <!-- Generator: Sketch 60 (88103) - https://sketch.com -->
    <title>BSC</title>
    <desc>Created with Sketch.</desc>
    <defs>
        <circle id="path-1" cx="12" cy="12" r="12"></circle>
        <filter x="-6.2%" y="-6.2%" width="112.5%" height="112.5%" filterUnits="objectBoundingBox" id="filter-2">
            <feOffset dx="0" dy="0" in="SourceAlpha" result="shadowOffsetOuter1"></feOffset>
            <feGaussianBlur stdDeviation="0.5" in="shadowOffsetOuter1" result="shadowBlurOuter1"></feGaussianBlur>
            <feComposite in="shadowBlurOuter1" in2="SourceAlpha" operator="out" result="shadowBlurOuter1"></feComposite>
            <feColorMatrix values="0 0 0 0 0.301941803   0 0 0 0 0.296602588   0 0 0 0 0.296602588  0 0 0 0.177638767 0" type="matrix" in="shadowBlurOuter1"></feColorMatrix>
        </filter>
    </defs>
    <g id="BSC" stroke="none" stroke-width="1" fill="none" fill-rule="evenodd">
        <g id="椭圆形备份-7">
            <use fill="black" fill-opacity="1" filter="url(#filter-2)" xlink:href="#path-1"></use>
            <circle stroke="#FFFFFF" stroke-width="1" stroke-linejoin="square" fill="rgb(255,0,0)" fill-rule="evenodd" cx="12" cy="12" r="11.5"></circle>
        </g>
        <path d="M10.1021571,17 L10.103,17.625 L10.5974279,17.625629 L10.5974279,18.625629 L10.103,18.625 L10.1021571,19 L9,18 L10.1021571,17 Z M13.8978429,17 L15,18 L13.8978429,19 L13.898,18.625 L13.2728291,18.625629 L13.2728291,17.625629 L13.898,17.625 L13.8978429,17 Z M11.2191736,17.625629 L11.2191736,18.625629 L10.7858466,18.625629 L10.7858466,17.625629 L11.2191736,17.625629 Z M11.8409192,17.625629 L11.8409192,18.625629 L11.4075922,18.625629 L11.4075922,17.625629 L11.8409192,17.625629 Z M12.4626648,17.625629 L12.4626648,18.625629 L12.0293378,18.625629 L12.0293378,17.625629 L12.4626648,17.625629 Z M13.0844105,17.625629 L13.0844105,18.625629 L12.6510835,18.625629 L12.6510835,17.625629 L13.0844105,17.625629 Z M7.89189189,14.1746077 L9.18918919,16.3136618 L7.89189189,18.4527159 L5.2972973,18.4527159 L4,16.3136618 L5.2972973,14.1746077 L7.89189189,14.1746077 Z M18.7027027,14.1746077 L20,16.3136618 L18.7027027,18.4527159 L16.1081081,18.4527159 L14.8108108,16.3136618 L16.1081081,14.1746077 L18.7027027,14.1746077 Z M13.1971973,14.091492 C13.4477844,14.2083427 13.6169274,14.4265436 13.6743039,14.6687595 C13.0819293,14.3931722 12.3884642,14.6261614 12.1249865,15.1898323 C12.0003549,14.9702043 11.9789313,14.7023645 12.0901544,14.4638458 C12.2781215,14.0607491 12.7737614,13.8940407 13.1971973,14.091492 Z M13.411314,12.7998817 C13.7733694,12.968711 14.0581444,13.233709 14.246743,13.5466832 C14.2297705,13.5371872 14.2125574,13.5289382 14.1952143,13.520851 C12.9249068,12.9284969 11.437987,13.4286222 10.8740858,14.6379122 L10.8521849,14.686997 C10.7803686,14.3352649 10.8153058,13.9632834 10.9758198,13.61906 C11.3893473,12.7322474 12.4797552,12.3654888 13.411314,12.7998817 Z M6.89771443,12.1331516 L7.76373983,12.6331516 L7.50151556,13.086214 L7.7153387,13.2106044 L6.34633099,13.7674357 L6.14404692,12.3034187 L6.63549015,12.586214 L6.89771443,12.1331516 Z M16.7544949,12.1331516 L17.0167191,12.586214 L17.5081624,12.3034187 L17.3058783,13.7674357 L15.9368706,13.2106044 L16.1506937,13.086214 L15.8884695,12.6331516 L16.7544949,12.1331516 Z M13.1617037,11.2314969 C13.5957486,11.4338954 13.9534343,11.7313164 14.2193724,12.084513 C12.3763377,11.3341668 10.2919349,12.0354497 9.39980406,13.7065014 C9.35817472,13.2771578 9.42643787,12.8363371 9.61916662,12.4230289 C10.2206612,11.1331196 11.8067091,10.5996525 13.1617037,11.2314969 Z M16.4254076,11.5631558 L16.6547657,11.9604156 L15.7887403,12.4604156 L15.5593822,12.0631558 L16.4254076,11.5631558 Z M7.22680167,11.5631558 L8.09282708,12.0631558 L7.863469,12.4604156 L6.99744359,11.9604156 L7.22680167,11.5631558 Z M16.0963204,10.9931599 L16.3256785,11.3904198 L15.4596531,11.8904198 L15.230295,11.4931599 L16.0963204,10.9931599 Z M7.55588892,10.9931599 L8.42191432,11.4931599 L8.19255624,11.8904198 L7.32653084,11.3904198 L7.55588892,10.9931599 Z M7.88497617,10.4231641 L8.75100157,10.9231641 L8.52164349,11.320424 L7.65561808,10.820424 L7.88497617,10.4231641 Z M15.7672331,10.4231641 L15.9965912,10.820424 L15.1305658,11.320424 L14.9012077,10.9231641 L15.7672331,10.4231641 Z M8.21406341,9.85316828 L9.08008882,10.3531683 L8.85073073,10.7504281 L7.98470533,10.2504281 L8.21406341,9.85316828 Z M15.4381459,9.85316828 L15.667504,10.2504281 L14.8014786,10.7504281 L14.5721205,10.3531683 L15.4381459,9.85316828 Z M9.52210475,8.26683416 L9.72437859,9.73084523 L9.51051556,9.60652396 L9.17981798,10.1804323 L8.31379257,9.6804323 L8.64449015,9.10652396 L8.15308682,8.8236595 L9.52210475,8.26683416 Z M14.1301045,8.26683416 L15.4991225,8.8236595 L15.0077191,9.10652396 L15.3384167,9.6804323 L14.4723913,10.1804323 L14.1416937,9.60652396 L13.9278307,9.73084523 L14.1301045,8.26683416 Z M13.0810811,4.7064013 L14.3783784,6.84545538 L13.0810811,8.98450945 L10.4864865,8.98450945 L9.18918919,6.84545538 L10.4864865,4.7064013 L13.0810811,4.7064013 Z" id="形状结合" fill="#FFFFFF"></path>
    </g>
</svg>