<?xml version="1.0" encoding="UTF-8"?>
<svg width="24px" height="24px" viewBox="0 0 24 24" version="1.1" xmlns="http://www.w3.org/2000/svg" xmlns:xlink="http://www.w3.org/1999/xlink">
    <!-- Generator: Sketch 60 (88103) - https://sketch.com -->
    <title>BTS</title>
    <desc>Created with Sketch.</desc>
    <defs>
        <circle id="path-1" cx="12" cy="12" r="12"></circle>
        <filter x="-6.2%" y="-6.2%" width="112.5%" height="112.5%" filterUnits="objectBoundingBox" id="filter-2">
            <feOffset dx="0" dy="0" in="SourceAlpha" result="shadowOffsetOuter1"></feOffset>
            <feGaussianBlur stdDeviation="0.5" in="shadowOffsetOuter1" result="shadowBlurOuter1"></feGaussianBlur>
            <feComposite in="shadowBlurOuter1" in2="SourceAlpha" operator="out" result="shadowBlurOuter1"></feComposite>
            <feColorMatrix values="0 0 0 0 0.301941803   0 0 0 0 0.296602588   0 0 0 0 0.296602588  0 0 0 0.177638767 0" type="matrix" in="shadowBlurOuter1"></feColorMatrix>
        </filter>
    </defs>
    <g id="BTS" stroke="none" stroke-width="1" fill="none" fill-rule="evenodd">
        <g id="椭圆形备份-7">
            <use fill="black" fill-opacity="1" filter="url(#filter-2)" xlink:href="#path-1"></use>
            <circle stroke="#FFFFFF" stroke-width="1" stroke-linejoin="square" fill="rgb(255,0,0)" fill-rule="evenodd" cx="12" cy="12" r="11.5"></circle>
        </g>
        <path d="M9.1183625,6.44657647 C8.33146836,7.13413697 7.83284194,8.14502498 7.83284194,9.27374114 C7.83284194,10.3946823 8.32758088,11.400682 9.10765744,12.0889823 L9.11447503,12.0811928 C9.24984031,12.1756671 9.52251463,12.0461331 9.73191597,11.7834385 C9.93058324,11.5360618 10.0007028,11.2575418 9.9003973,11.1348253 L9.9159762,11.1173026 C9.37059857,10.6459465 9.02584645,9.95254032 9.02584645,9.17733761 C9.02584645,8.45177271 9.3258056,7.8022166 9.80788125,7.33474798 C9.81274059,7.330846 9.8185863,7.330846 9.82346015,7.32695853 C9.94031643,7.23444248 9.87895818,6.96272553 9.68223464,6.72315276 C9.49038495,6.48552372 9.24302273,6.36865294 9.12420821,6.45436592 L9.1183625,6.44657647 L9.1183625,6.44657647 Z M7.9847725,5.00034951 C7.97308107,5.01108358 7.96140415,5.02276051 7.94874085,5.03249369 C7.94678261,5.03445193 7.94289513,5.0354093 7.94093689,5.03736754 C7.93510568,5.04125501 7.93314744,5.04710073 7.92925997,5.05003084 C6.74891875,6.07649775 6,7.58795592 6,9.27374114 C6,10.9546525 6.74404491,12.4610047 7.91855491,13.4864998 C7.92634436,13.4952756 7.93219008,13.5050088 7.94093689,13.5127982 C8.07241471,13.6179631 8.35289298,13.4874862 8.56618179,13.2206286 C8.77556862,12.9586593 8.84275808,12.6645459 8.72102796,12.5544927 L8.7258873,12.5486615 C7.81337556,11.7503225 7.23488188,10.5806863 7.23488188,9.27374114 C7.23488188,7.95413266 7.82408062,6.77476331 8.74925565,5.97617774 L8.74342444,5.96936016 C8.83009478,5.84178432 8.75900334,5.57008188 8.56520992,5.33050911 C8.37627583,5.09288007 8.13670306,4.96433237 7.99159008,5.01106908 L7.9847725,5.00034951 Z M14.9156435,12.1026175 C15.7025231,11.4153035 16.2011496,10.4044155 16.2011496,9.27568487 C16.2011496,8.15475817 15.7064251,7.14874401 14.9263341,6.46021163 L14.9205028,6.46800108 C14.7841512,6.37352679 14.5114769,6.50306087 14.3030619,6.76600199 C14.1034083,7.01336421 14.0332887,7.29189875 14.1336087,7.41460074 L14.1180298,7.43213788 C14.6633929,7.9025221 15.0091169,8.59690019 15.0091169,9.3721029 C15.0091169,10.0976388 14.7081859,10.7472239 14.2261102,11.2146925 C14.2212509,11.2175936 14.2163916,11.2175936 14.2105458,11.222482 C14.0936751,11.314998 14.1560052,11.586715 14.3517569,11.8262878 C14.543621,12.0636557 14.7909833,12.1805265 14.9097833,12.094828 L14.915629,12.1026175 L14.9156435,12.1026175 Z M16.0502054,13.5488299 C16.0609401,13.5371212 16.0726707,13.5263661 16.0852652,13.5166857 C16.0872089,13.514742 16.0920827,13.5137846 16.0940265,13.5118119 C16.0988858,13.5069525 16.1008441,13.5020932 16.104746,13.4991631 C17.2850872,12.4726962 18.034006,10.9614701 18.034006,9.27568487 C18.034006,7.59380163 17.2899611,6.08818918 16.1154511,5.06267963 C16.1086335,5.05391831 16.1018159,5.04321325 16.0940265,5.03639567 C15.9625487,4.93121632 15.6820704,5.06170776 15.4678242,5.32855086 C15.2584374,5.59052012 15.1912334,5.88463356 15.312978,5.99468675 L15.3081042,6.00053247 C16.2206304,6.79911804 16.7991241,7.96873969 16.7991241,9.27568487 C16.7991241,10.5952934 16.2108973,11.7746627 15.2857077,12.5730162 L15.2905816,12.5798338 C15.2038967,12.7073951 15.2749882,12.9781547 15.4687961,13.2186848 C15.6577302,13.4563138 15.8972884,13.5848616 16.0424159,13.5371385 L16.0502054,13.5488299 L16.0502054,13.5488299 Z M15.8515236,18.0335521 L12.7954767,10.6605536 C13.0808288,10.4258547 13.2658754,10.0752568 13.2658754,9.67790777 C13.2658754,8.97086638 12.693213,8.39724655 11.9874045,8.39724655 C11.281335,8.39724655 10.7096734,8.97183825 10.7096734,9.67790777 C10.7096734,10.1073865 10.9239196,10.4871984 11.2521209,10.7180098 L8.20389252,18.0656963 C8.20097692,18.0744431 8.19707494,18.0812752 8.19610307,18.0880928 L8.18343977,18.1153631 L8.18635538,18.116335 C8.166889,18.1728049 8.15421466,18.2322339 8.15421466,18.2964932 C8.15328474,18.4470231 8.21253206,18.5916884 8.31879083,18.6983149 C8.4250496,18.8049414 8.56950931,18.8646882 8.72004158,18.8642708 C8.87052649,18.86479 9.01499872,18.8052413 9.12140826,18.6988318 C9.2278178,18.5924222 9.28736646,18.44795 9.28684383,18.2974651 L10.010436,16.4850759 L14.0800399,16.4850759 L14.7977863,18.1776787 C14.7880677,18.2166405 14.7851376,18.2556022 14.7851376,18.2974651 C14.784615,18.4479475 14.8441616,18.5924175 14.950568,18.6988266 C15.0569744,18.8052357 15.2014429,18.8647861 15.3519253,18.8642708 C15.6635759,18.8642708 15.918713,18.6120168 15.918713,18.2974651 C15.918713,18.2020334 15.8914717,18.1133903 15.8515381,18.0335521 L15.8515236,18.0335521 Z M11.9883909,11.5311879 L12.9328147,13.7679644 L11.0943737,13.7679644 L11.9883909,11.5311879 Z M10.2850831,15.7975299 L10.7953864,14.5188124 L13.2502965,14.5188124 L13.7908003,15.7975299 L10.2850831,15.7975299 Z" id="Shape" fill="#FFFFFF" fill-rule="nonzero"></path>
    </g>
</svg>