<?xml version="1.0" encoding="UTF-8"?>
<svg width="24px" height="24px" viewBox="0 0 24 24" version="1.1" xmlns="http://www.w3.org/2000/svg" xmlns:xlink="http://www.w3.org/1999/xlink">
    <!-- Generator: Sketch 60 (88103) - https://sketch.com -->
    <title>CELL</title>
    <desc>Created with Sketch.</desc>
    <defs>
        <circle id="path-1" cx="12" cy="12" r="12"></circle>
        <filter x="-6.2%" y="-6.2%" width="112.5%" height="112.5%" filterUnits="objectBoundingBox" id="filter-2">
            <feOffset dx="0" dy="0" in="SourceAlpha" result="shadowOffsetOuter1"></feOffset>
            <feGaussianBlur stdDeviation="0.5" in="shadowOffsetOuter1" result="shadowBlurOuter1"></feGaussianBlur>
            <feComposite in="shadowBlurOuter1" in2="SourceAlpha" operator="out" result="shadowBlurOuter1"></feComposite>
            <feColorMatrix values="0 0 0 0 0.301941803   0 0 0 0 0.296602588   0 0 0 0 0.296602588  0 0 0 0.177638767 0" type="matrix" in="shadowBlurOuter1"></feColorMatrix>
        </filter>
    </defs>
    <g id="CELL" stroke="none" stroke-width="1" fill="none" fill-rule="evenodd">
        <g id="椭圆形备份-7">
            <use fill="black" fill-opacity="1" filter="url(#filter-2)" xlink:href="#path-1"></use>
            <circle stroke="#FFFFFF" stroke-width="1" stroke-linejoin="square" fill="red" fill-rule="evenodd" cx="12" cy="12" r="11.5"></circle>
        </g>
        <g id="信号-(1)" transform="translate(6.000000, 5.000000)" fill="#FFFFFF" fill-rule="nonzero">
            <path d="M3.10955055,1.43092726 C2.32488004,2.11104967 1.82766264,3.1110018 1.82766264,4.22750739 C1.82766264,5.33632214 2.32100355,6.3314388 3.09887575,7.01229298 L3.10567406,7.0045878 C3.24065683,7.09804006 3.51256062,6.9699073 3.72137022,6.71005462 C3.9194761,6.46535404 3.98939752,6.18984707 3.88937546,6.06845813 L3.90491034,6.05112506 C3.36107384,5.58486814 3.01729593,4.89896326 3.01729593,4.13214676 C3.01729593,3.41443109 3.31640745,2.77190195 3.79712084,2.30949045 C3.80196645,2.30563068 3.80779565,2.30563068 3.81265572,2.30178527 C3.92918178,2.21027006 3.86799692,1.94149257 3.67182929,1.70451152 C3.48052173,1.46945318 3.23385852,1.35384672 3.11537975,1.43863245 L3.10955055,1.43092726 L3.10955055,1.43092726 Z M1.97916388,0.000345732768 C1.96750549,0.0109636776 1.95586156,0.0225142797 1.94323405,0.0321421728 C1.94128134,0.0340792303 1.93740485,0.0350262362 1.93545214,0.0369632937 C1.92963741,0.0408087116 1.9276847,0.0465911869 1.92380822,0.0494895988 C0.74680244,1.06485209 0,2.55995916 0,4.22750739 C0,5.89023449 0.741942366,7.38029086 1.91313341,8.394692 C1.92090085,8.40337289 1.92673005,8.41300078 1.93545214,8.42070597 C2.06655842,8.52473313 2.34624411,8.3956677 2.55893021,8.13169699 C2.76772535,7.87256174 2.83472494,7.58163005 2.71333881,7.47276742 L2.71818442,7.4669993 C1.80825128,6.67729683 1.23139232,5.52031391 1.23139232,4.22750739 C1.23139232,2.92217456 1.81892608,1.75556375 2.74148673,0.965617354 L2.735672,0.958873524 C2.82209743,0.832677815 2.75120688,0.563914675 2.55796108,0.326933626 C2.36956089,0.0918752865 2.13066511,-0.0352817766 1.9859622,0.010949329 L1.97916388,0.000345732768 Z M8.89044945,7.02578064 C9.6751055,6.34590216 10.1723229,5.34595004 10.1723229,4.2294301 C10.1723229,3.12062969 9.67899645,2.12549868 8.90110979,1.44441492 L8.89529506,1.45212011 C8.7593287,1.35866784 8.48742492,1.48680061 8.2795989,1.74689721 C8.08050944,1.99158344 8.01058802,2.26710476 8.11062454,2.38847935 L8.09508966,2.40582678 C8.63891169,2.87112233 8.98365872,3.55798857 8.98365872,4.32480507 C8.98365872,5.04249204 8.68357808,5.68504989 8.2028647,6.14746138 C8.19801909,6.1503311 8.19317348,6.1503311 8.18734428,6.15516657 C8.07080376,6.24668177 8.13295774,6.51545926 8.32815625,6.75244031 C8.51947827,6.98724037 8.76614148,7.10284684 8.88460579,7.01807546 L8.89043498,7.02578064 L8.89044945,7.02578064 Z M10.0218052,8.45634782 C10.0325097,8.44476578 10.0442071,8.43412706 10.056766,8.42455138 C10.0587042,8.42262868 10.0635643,8.42168167 10.0655025,8.41973026 C10.0703481,8.41492349 10.0723008,8.41011672 10.0761918,8.40721831 C11.2531976,7.39185581 12,5.89697832 12,4.2294301 C12,2.56574163 11.2580576,1.07641704 10.0868666,0.0620015554 C10.0800683,0.0533350167 10.07327,0.042745769 10.0655025,0.0360019392 C9.93439623,-0.0680395711 9.65471055,0.0610402009 9.44106979,0.324996569 C9.23227465,0.584131816 9.1652606,0.875063503 9.28666119,0.983926134 L9.28180112,0.98970861 C10.1917487,1.779655 10.7686077,2.93662358 10.7686077,4.2294301 C10.7686077,5.53476292 10.182043,6.70137373 9.25946792,7.49109055 L9.264328,7.49783438 C9.17788811,7.62401574 9.24877865,7.89184622 9.44203892,8.12977428 C9.63043911,8.36483262 9.86932042,8.49198968 10.0140378,8.44478287 L10.0218052,8.45634782 L10.0218052,8.45634782 Z M9.82368491,12.8925539 L6.77627387,5.59931716 C7.06081963,5.36715723 7.24534333,5.02035219 7.24534333,4.62730171 C7.24534333,3.92790916 6.6742991,3.3604948 5.97048518,3.3604948 C5.26641089,3.3604948 4.69636471,3.92887052 4.69636471,4.62730171 C4.69636471,5.05213429 4.91000546,5.42783735 5.23727937,5.65615186 L2.19766471,12.9243503 C2.19475734,12.9330025 2.19086639,12.9397607 2.18989727,12.9465045 L2.17726975,12.9734798 L2.18017712,12.9744412 C2.16076575,13.0303002 2.14812723,13.0890863 2.14812723,13.1526505 C2.14719994,13.3015519 2.20627983,13.4446522 2.31223833,13.5501252 C2.41819683,13.6555982 2.56224833,13.7146987 2.71235522,13.7142857 C2.86241489,13.7147993 3.00647886,13.6558949 3.11258771,13.5506365 C3.21869655,13.4453781 3.27807693,13.3024688 3.27755579,13.1536118 L3.9991032,11.3608292 L8.05720712,11.3608292 L8.77292534,13.0351213 C8.76323412,13.0736616 8.76031229,13.1122018 8.76031229,13.1536118 C8.75979116,13.3024663 8.81916956,13.4453734 8.92527527,13.5506314 C9.03138099,13.6558893 9.17544123,13.7147955 9.32549839,13.7142857 C9.6362683,13.7142857 9.8906845,13.4647606 9.8906845,13.1536118 C9.8906845,13.0592125 9.86352015,12.9715284 9.82369937,12.8925539 L9.82368491,12.8925539 Z M5.97146876,6.46053292 L6.91322381,8.67311173 L5.07997787,8.67311173 L5.97146876,6.46053292 Z M4.27297416,10.6807212 L4.78183547,9.41583697 L7.22980845,9.41583697 L7.76878487,10.6807212 L4.27297416,10.6807212 Z" id="Shape"></path>
        </g>
    </g>
</svg>