<?xml version="1.0" encoding="UTF-8"?>
<svg width="26px" height="38px" viewBox="0 0 26 38" version="1.1" xmlns="http://www.w3.org/2000/svg" xmlns:xlink="http://www.w3.org/1999/xlink">
    <!-- Generator: Sketch 60 (88103) - https://sketch.com -->
    <title>CLOSURE</title>
    <desc>Created with Sketch.</desc>
    <defs>
        <path d="M13.4709867,36.8673676 C14.6687333,34.0944129 15.7565522,32.1575453 16.7344434,31.0567648 C24.6484631,21.1400355 26.1469303,19.0301509 25.9892013,13 C25.9892013,5.82029825 20.1713595,0 12.994688,0 C5.81801645,0 0,5.82029825 0,13 C0.0442955684,19.8691014 1.7070064,22.2078992 9.49511735,31.0567648 C10.4811393,32.3176175 11.4988246,34.2506646 12.5481734,36.8559062 L12.5481628,36.8559105 C12.6513362,37.1120615 12.9426263,37.2360743 13.1987773,37.1329009 C13.3209436,37.0836943 13.4187623,36.9882746 13.4709867,36.8673676 Z" id="path-1"></path>
        <filter x="-5.8%" y="-3.9%" width="111.5%" height="105.7%" filterUnits="objectBoundingBox" id="filter-2">
            <feOffset dx="0" dy="0" in="SourceAlpha" result="shadowOffsetOuter1"></feOffset>
            <feGaussianBlur stdDeviation="0.5" in="shadowOffsetOuter1" result="shadowBlurOuter1"></feGaussianBlur>
            <feColorMatrix values="0 0 0 0 0.301941803   0 0 0 0 0.296602588   0 0 0 0 0.296602588  0 0 0 0.177638767 0" type="matrix" in="shadowBlurOuter1"></feColorMatrix>
        </filter>
    </defs>
    <g id="CLOSURE" stroke="none" stroke-width="1" fill="none" fill-rule="evenodd">
        <g id="椭圆形备份-6">
            <use fill="black" fill-opacity="1" filter="url(#filter-2)" xlink:href="#path-1"></use>
            <use fill="red" fill-rule="evenodd" xlink:href="#path-1"></use>
        </g>
        <path d="M6,15 L6,13 L10,13 C10,11.8954305 10.8954305,11 12,11 L12,7 L14,7 L14,11 C15.1045695,11 16,11.8954305 16,13 L20,13 L20,15 L16,15 C16,16.1045695 15.1045695,17 14,17 L14,21 L12,21 L12,17 C10.8954305,17 10,16.1045695 10,15 L6,15 Z M13,12 C11.8954305,12 11,12.8954305 11,14 C11,15.1045695 11.8954305,16 13,16 C14.1045695,16 15,15.1045695 15,14 C15,12.8954305 14.1045695,12 13,12 Z" id="形状结合备份" fill="#FFFFFF"></path>
    </g>
</svg>
