<?xml version="1.0" encoding="UTF-8"?>
<svg width="48px" height="48px" viewBox="0 0 48 48" version="1.1" xmlns="http://www.w3.org/2000/svg" xmlns:xlink="http://www.w3.org/1999/xlink">
    <!-- Generator: Sketch 60 (88103) - https://sketch.com -->
    <title>编组 2</title>
    <desc>Created with Sketch.</desc>
    <g id="资源树icon" stroke="none" stroke-width="1" fill="none" fill-rule="evenodd">
        <g id="编组-2">
            <circle id="椭圆形" stroke="#FFFFFF" fill="rgb(255,0,255)" cx="24" cy="24" r="23.5"></circle>
            <path d="M40,13 L40,34.8761676 L8,34.8761676 L8,13 L40,13 Z M38.6666667,27.8721239 L9.33333333,27.8721239 L9.33333333,33.2054572 L38.6666667,33.2054572 L38.6666667,27.8721239 Z M37.2237206,29.2747797 L37.2237206,31.9414464 L35.2237206,31.9414464 L35.2237206,29.2747797 L37.2237206,29.2747797 Z M34.2237206,29.2747797 L34.2237206,31.9414464 L32.2237206,31.9414464 L32.2237206,29.2747797 L34.2237206,29.2747797 Z M22.6538451,29.2747797 L22.6538451,31.9414464 L10.6666667,31.9414464 L10.6666667,29.2747797 L22.6538451,29.2747797 Z M38.6666667,21.2054572 L9.33333333,21.2054572 L9.33333333,26.5387905 L38.6666667,26.5387905 L38.6666667,21.2054572 Z M22.6538451,22.6081131 L22.6538451,25.2747797 L10.6666667,25.2747797 L10.6666667,22.6081131 L22.6538451,22.6081131 Z M37.2650034,22.6081131 L37.2650034,25.2747797 L35.2650034,25.2747797 L35.2650034,22.6081131 L37.2650034,22.6081131 Z M34.2650034,22.6081131 L34.2650034,25.2747797 L32.2650034,25.2747797 L32.2650034,22.6081131 L34.2650034,22.6081131 Z M38.6666667,14.5387905 L9.33333333,14.5387905 L9.33333333,19.8721239 L38.6666667,19.8721239 L38.6666667,14.5387905 Z M22.6538451,15.9414464 L22.6538451,18.6081131 L10.6666667,18.6081131 L10.6666667,15.9414464 L22.6538451,15.9414464 Z M37.2463561,15.9414464 L37.2463561,18.6081131 L35.2463561,18.6081131 L35.2463561,15.9414464 L37.2463561,15.9414464 Z M34.2463561,15.9414464 L34.2463561,18.6081131 L32.2463561,18.6081131 L32.2463561,15.9414464 L34.2463561,15.9414464 Z" id="形状结合" fill="#FFFFFF"></path>
        </g>
    </g>
</svg>