<?xml version="1.0" encoding="UTF-8"?>
<svg width="24px" height="24px" viewBox="0 0 24 24" version="1.1" xmlns="http://www.w3.org/2000/svg" xmlns:xlink="http://www.w3.org/1999/xlink">
    <!-- Generator: Sketch 60 (88103) - https://sketch.com -->
    <title>DSC</title>
    <desc>Created with Sketch.</desc>
    <defs>
        <circle id="path-1" cx="12" cy="12" r="12"></circle>
        <filter x="-6.2%" y="-6.2%" width="112.5%" height="112.5%" filterUnits="objectBoundingBox" id="filter-2">
            <feOffset dx="0" dy="0" in="SourceAlpha" result="shadowOffsetOuter1"></feOffset>
            <feGaussianBlur stdDeviation="0.5" in="shadowOffsetOuter1" result="shadowBlurOuter1"></feGaussianBlur>
            <feComposite in="shadowBlurOuter1" in2="SourceAlpha" operator="out" result="shadowBlurOuter1"></feComposite>
            <feColorMatrix values="0 0 0 0 0.301941803   0 0 0 0 0.296602588   0 0 0 0 0.296602588  0 0 0 0.177638767 0" type="matrix" in="shadowBlurOuter1"></feColorMatrix>
        </filter>
    </defs>
    <g id="DSC" stroke="none" stroke-width="1" fill="none" fill-rule="evenodd">
        <g id="椭圆形备份-7">
            <use fill="black" fill-opacity="1" filter="url(#filter-2)" xlink:href="#path-1"></use>
            <circle stroke="#FFFFFF" stroke-width="1" stroke-linejoin="square" fill="rgb(255,0,255)" fill-rule="evenodd" cx="12" cy="12" r="11.5"></circle>
        </g>
        <path d="M17.6,15.1585127 L20,16.5792564 L17.6114286,18 L17.6114286,17.1663405 L17.378,17.166 L17.378,15.992 L17.6,15.9921722 L17.6,15.1585127 Z M6.39461526,15.1585127 L6.39461526,15.9921722 L6.621,15.992 L6.621,17.166 L6.40604383,17.1663405 L6.40604383,18 L4.00604383,16.5792564 L6.39461526,15.1585127 Z M16.302,15.988 L16.4215873,15.9921722 L16.84,15.992 L16.84,17.166 L16.4215873,17.1663405 L16.302,17.163 L16.302,15.988 Z M7.697,15.992 L7.697,17.166 L7.159,17.166 L7.159,15.992 L7.697,15.992 Z M8.77342226,15.9383018 L8.77452865,17.1272695 C8.6516369,17.1442777 8.5247617,17.1558042 8.39342554,17.1617114 L8.235,17.165 L8.23588039,15.9916566 C8.42659615,15.9882594 8.60518116,15.9702309 8.77342226,15.9383018 Z M15.2282079,15.7426696 C15.3966626,15.8223385 15.573662,15.8836113 15.7648098,15.9254976 L15.764903,17.1202918 C15.5806771,17.0944207 15.4012684,17.0578919 15.2270145,17.0113158 L15.2282079,15.7426696 Z M9.84735597,15.4660203 L9.84812804,16.7998207 C9.6766277,16.8848361 9.49822623,16.9556773 9.31067231,17.0116956 L9.31172174,15.7757357 C9.50302531,15.6941033 9.68025614,15.5903277 9.84735597,15.4660203 Z M14.6903695,15.4617197 L14.6898504,16.8297282 C14.5027414,16.7525302 14.3229031,16.6629363 14.1508467,16.5618711 L14.1515667,15.8130922 C14.3405618,15.7104304 14.5206617,15.5927936 14.6903695,15.4617197 Z M10.3862485,15.8130922 C10.5501693,15.9021337 10.7207817,15.97991 10.8971089,16.0454179 C10.73091,16.2034183 10.5616253,16.3459862 10.386983,16.4723341 L10.3862485,15.8130922 Z M9.31044719,7.10031252 C9.49382632,7.16198729 9.67325059,7.23374016 9.84795308,7.31491674 L9.84748458,8.62795942 C10.0186006,8.51850155 10.1986006,8.42171164 10.3861621,8.3389123 L10.3869731,7.6042255 C10.630142,7.75329685 10.8611156,7.92160169 11.0773858,8.10699991 C11.3727019,8.03710404 11.6820179,8 12,8 C14.209139,8 16,9.790861 16,12 C16,14.209139 14.209139,16 12,16 C9.790861,16 8,14.209139 8,12 C8,10.5862347 8.73344984,9.34377583 9.840599,8.63237384 C9.67618288,8.52836796 9.49691827,8.43297657 9.3112997,8.35108662 L9.31044719,7.10031252 Z M12,9.06666667 C10.3799647,9.06666667 9.06666667,10.3799647 9.06666667,12 C9.06666667,13.6200353 10.3799647,14.9333333 12,14.9333333 C13.6200353,14.9333333 14.9333333,13.6200353 14.9333333,12 C14.9333333,10.3799647 13.6200353,9.06666667 12,9.06666667 Z M6.38857143,6 L6.38857143,6.83365949 L6.621,6.833 L6.621,8.007 L6.4,8.00782779 L6.4,8.84148728 L4,7.42074364 L6.38857143,6 Z M17.6,6 L20,7.42074364 L17.6,8.84148728 L17.6,8.00782779 L17.378,8.007 L17.378,6.833 L17.6,6.83365949 L17.6,6 Z M14.6899688,7.39702712 L14.6904161,8.81825307 C14.6877342,8.8207472 14.6850546,8.82324657 14.6823773,8.82575119 C14.570864,8.74046114 14.4548223,8.66065501 14.3347162,8.58697818 L14.1515667,8.48114058 L14.1514893,7.78606048 C14.3255429,7.64065689 14.5044004,7.51069864 14.6899688,7.39702712 Z M15.7636631,6.94756318 L15.7646268,8.16357054 C15.5745998,8.22765151 15.3960234,8.31082704 15.2269816,8.41184019 L15.2272814,7.12255869 C15.3993681,7.05137389 15.5777553,6.99286263 15.7636631,6.94756318 Z M8.23605659,6.86331462 C8.41757565,6.88312285 8.59693342,6.91267635 8.77351666,6.95145185 L8.77274441,8.15711846 C8.59715696,8.10752063 8.4176435,8.06968444 8.23531275,8.0445122 L8.23605659,6.86331462 Z M16.84,6.833 L16.84,8.007 L16.7484644,8.00782779 C16.5932295,8.00865293 16.4445447,8.01902532 16.3018252,8.03856137 L16.3020962,6.85596648 C16.3669457,6.84941671 16.4326967,6.84429523 16.4993901,6.84062015 L16.7484644,6.83365949 L16.84,6.833 Z M7.697,6.833 L7.697,8.007 L7.159,8.007 L7.159,6.833 L7.697,6.833 Z" id="形状结合" fill="#FFFFFF" fill-rule="nonzero"></path>
    </g>
</svg>