<?xml version="1.0" encoding="UTF-8"?>
<svg width="24px" height="24px" viewBox="0 0 24 24" version="1.1" xmlns="http://www.w3.org/2000/svg" xmlns:xlink="http://www.w3.org/1999/xlink">
    <!-- Generator: Sketch 60 (88103) - https://sketch.com -->
    <title>ODF</title>
    <desc>Created with Sketch.</desc>
    <defs>
        <circle id="path-1" cx="12" cy="12" r="12"></circle>
        <filter x="-6.2%" y="-6.2%" width="112.5%" height="112.5%" filterUnits="objectBoundingBox" id="filter-2">
            <feOffset dx="0" dy="0" in="SourceAlpha" result="shadowOffsetOuter1"></feOffset>
            <feGaussianBlur stdDeviation="0.5" in="shadowOffsetOuter1" result="shadowBlurOuter1"></feGaussianBlur>
            <feComposite in="shadowBlurOuter1" in2="SourceAlpha" operator="out" result="shadowBlurOuter1"></feComposite>
            <feColorMatrix values="0 0 0 0 0.301941803   0 0 0 0 0.296602588   0 0 0 0 0.296602588  0 0 0 0.177638767 0" type="matrix" in="shadowBlurOuter1"></feColorMatrix>
        </filter>
    </defs>
    <g id="ODF" stroke="none" stroke-width="1" fill="none" fill-rule="evenodd">
        <g id="椭圆形备份-4">
            <use fill="black" fill-opacity="1" filter="url(#filter-2)" xlink:href="#path-1"></use>
            <circle stroke="#FFFFFF" stroke-width="1" stroke-linejoin="square" fill="rgb(255,0,255)" fill-rule="evenodd" cx="12" cy="12" r="11.5"></circle>
        </g>
        <g id="编组" transform="translate(7.000000, 7.000000)" fill="#FFFFFF">
            <path d="M10,10 L0,10 L0,0 L10,9.18485099e-16 L10,10 Z M4,7.999 L4,9 L6,9 L6,8 L4,7.999 Z M9,8 L7,8 L7,9 L9,9 L9,8 Z M3,7.999 L1,7.999 L1,9 L3,9 L3,7.999 Z M9,6 L7,6 L7,7 L9,7 L9,6 Z M4,5.999 L4,6.999 L6,7 L6,6 L4,5.999 Z M3,5.999 L1,5.999 L1,6.999 L3,6.999 L3,5.999 Z M4,3.999 L4,4.999 L6,5 L6,4 L4,3.999 Z M9,4 L7,4 L7,5 L9,5 L9,4 Z M3,3.999 L1,3.999 L1,4.999 L3,4.999 L3,3.999 Z M4,0.999 L4,2.999 L6,3 L6,1 L4,0.999 Z M7,1 L7,3 L9,3 L9,1 L7,1 Z M1,0.999 L1,2.999 L3,2.999 L3,0.999 L1,0.999 Z" id="形状结合"></path>
        </g>
    </g>
</svg>
