<?xml version="1.0" encoding="UTF-8"?>
<svg width="24px" height="24px" viewBox="0 0 24 24" version="1.1" xmlns="http://www.w3.org/2000/svg" xmlns:xlink="http://www.w3.org/1999/xlink">
    <!-- Generator: Sketch 60 (88103) - https://sketch.com -->
    <title>CELL</title>
    <desc>Created with Sketch.</desc>
    <defs>
        <circle id="path-1" cx="12" cy="12" r="12"></circle>
        <filter x="-6.2%" y="-6.2%" width="112.5%" height="112.5%" filterUnits="objectBoundingBox" id="filter-2">
            <feOffset dx="0" dy="0" in="SourceAlpha" result="shadowOffsetOuter1"></feOffset>
            <feGaussianBlur stdDeviation="0.5" in="shadowOffsetOuter1" result="shadowBlurOuter1"></feGaussianBlur>
            <feComposite in="shadowBlurOuter1" in2="SourceAlpha" operator="out" result="shadowBlurOuter1"></feComposite>
            <feColorMatrix values="0 0 0 0 0.301941803   0 0 0 0 0.296602588   0 0 0 0 0.296602588  0 0 0 0.177638767 0" type="matrix" in="shadowBlurOuter1"></feColorMatrix>
        </filter>
    </defs>
    <g id="CELL" stroke="none" stroke-width="1" fill="none" fill-rule="evenodd">
        <g id="椭圆形备份-7">
            <use fill="black" fill-opacity="1" filter="url(#filter-2)" xlink:href="#path-1"></use>
            <circle stroke="#FFFFFF" stroke-width="1" stroke-linejoin="square" fill="#D81E06" fill-rule="evenodd" cx="12" cy="12" r="11.5"></circle>
        </g>
        <path d="M13.7084517,14.5243511 L13.7639304,14.5277807 C13.8377117,14.5398542 13.9031258,14.5821241 13.9444478,14.6444292 L13.9444478,14.6444292 L15.7431881,17.3420197 C15.8233745,17.4633993 15.7938432,17.6264992 15.6756278,17.7114619 C14.526048,18.5353691 13.1685591,18.9708196 11.7498229,18.9708196 C10.3311019,18.9708196 8.97358282,18.5353691 7.82401812,17.7114619 C7.7058328,17.6265143 7.6762714,17.4634143 7.75647289,17.3420197 L7.75647289,17.3420197 L9.55525831,14.6444292 C9.59685627,14.5821881 9.66237764,14.5399581 9.73624277,14.5277807 C9.80856423,14.5156367 9.88564686,14.5341089 9.94475459,14.580048 C10.9728795,15.3690752 12.5272787,15.3686081 13.5549214,14.580048 C13.6143436,14.5344267 13.6900286,14.5155 13.7639304,14.5277807 Z M11.7500027,10.3982107 C12.6803868,10.3982107 13.4375034,11.1553272 13.4375034,12.0857114 C13.4375034,13.0160955 12.6803868,13.773212 11.7500027,13.773212 C10.8196051,13.773212 10.062502,13.0160955 10.062502,12.0857114 C10.062502,11.1553272 10.8196051,10.3982107 11.7500027,10.3982107 Z M8.76460393,6.16900177 C8.89440589,6.10513288 9.05331723,6.15581817 9.12190209,6.28456544 L9.12190209,6.28456544 L10.650386,9.14368897 C10.6857784,9.20913989 10.6921065,9.287232 10.6678487,9.35800156 C10.6435306,9.42869579 10.5918057,9.48625162 10.5232208,9.51736492 C9.30296188,10.0689215 8.60201625,11.3773524 8.81896556,12.6994942 C8.83116784,12.7733054 8.81202772,12.8488611 8.76615583,12.9079608 C8.72049859,12.9673384 8.65230284,13.0051722 8.57775842,13.0124804 L8.57775842,13.0124804 L5.35075973,13.3238996 C5.34227702,13.3243968 5.33386965,13.3249392 5.32488974,13.3249392 C5.19085396,13.3249392 5.07524509,13.2256931 5.05730033,13.089563 C4.68253956,10.2256783 6.17201513,7.44469209 8.76460393,6.16900177 Z M14.0679367,6.15419094 C14.1296661,6.02227961 14.2853682,5.96469364 14.4189218,6.02227961 C17.0732249,7.16233705 18.7046766,9.74799505 18.4793048,12.6277302 C18.4676882,12.7686214 18.3499699,12.7623363 18.2100882,12.7623363 L18.197447,12.7623363 L14.9578222,12.7327319 C14.8833913,12.7290706 14.8131943,12.752786 14.7646184,12.6957726 C14.7160877,12.6388044 14.6933818,12.5928652 14.7012618,12.5184494 C14.8501235,11.1873277 14.0827174,9.93117928 12.8349763,9.44350663 C12.7653067,9.41603954 12.7099205,9.36853338 12.681911,9.29887877 C12.654459,9.22919403 12.6565683,9.15532067 12.6882542,9.08721796 L12.6882542,9.08721796 Z" id="形状结合" fill="#FFFFFF" fill-rule="nonzero"></path>
    </g>
</svg>