<?xml version="1.0" encoding="UTF-8"?>
<svg width="24px" height="24px" viewBox="0 0 24 24" version="1.1" xmlns="http://www.w3.org/2000/svg" xmlns:xlink="http://www.w3.org/1999/xlink">
    <!-- Generator: Sketch 60 (88103) - https://sketch.com -->
    <title>F_CLosure</title>
    <desc>Created with Sketch.</desc>
    <defs>
        <circle id="path-1" cx="12" cy="12" r="12"></circle>
        <filter x="-6.2%" y="-6.2%" width="112.5%" height="112.5%" filterUnits="objectBoundingBox" id="filter-2">
            <feOffset dx="0" dy="0" in="SourceAlpha" result="shadowOffsetOuter1"></feOffset>
            <feGaussianBlur stdDeviation="0.5" in="shadowOffsetOuter1" result="shadowBlurOuter1"></feGaussianBlur>
            <feComposite in="shadowBlurOuter1" in2="SourceAlpha" operator="out" result="shadowBlurOuter1"></feComposite>
            <feColorMatrix values="0 0 0 0 0.301941803   0 0 0 0 0.296602588   0 0 0 0 0.296602588  0 0 0 0.177638767 0" type="matrix" in="shadowBlurOuter1"></feColorMatrix>
        </filter>
    </defs>
    <g id="F_CLosure" stroke="none" stroke-width="1" fill="none" fill-rule="evenodd">
        <g id="编组">
            <g id="椭圆形备份-5">
                <use fill="black" fill-opacity="1" filter="url(#filter-2)" xlink:href="#path-1"></use>
                <circle stroke="#FFFFFF" stroke-width="1" stroke-linejoin="square" fill="SeaGreen" fill-rule="evenodd" cx="12" cy="12" r="11.5"></circle>
            </g>
            <path d="M5,13 L5,11 L9,11 C9,9.8954305 9.8954305,9 11,9 L11,5 L13,5 L13,9 C14.1045695,9 15,9.8954305 15,11 L19,11 L19,13 L15,13 C15,14.1045695 14.1045695,15 13,15 L13,19 L11,19 L11,15 C9.8954305,15 9,14.1045695 9,13 L5,13 Z M12,10 C10.8954305,10 10,10.8954305 10,12 C10,13.1045695 10.8954305,14 12,14 C13.1045695,14 14,13.1045695 14,12 C14,10.8954305 13.1045695,10 12,10 Z" id="形状结合" fill="#FFFFFF"></path>
        </g>
    </g>
</svg>
