<?xml version="1.0" encoding="UTF-8"?>
<svg width="24px" height="24px" viewBox="0 0 24 24" version="1.1" xmlns="http://www.w3.org/2000/svg" xmlns:xlink="http://www.w3.org/1999/xlink">
    <!-- Generator: Sketch 60 (88103) - https://sketch.com -->
    <title>HSS</title>
    <desc>Created with Sketch.</desc>
    <defs>
        <circle id="path-1" cx="12" cy="12" r="12"></circle>
        <filter x="-6.2%" y="-6.2%" width="112.5%" height="112.5%" filterUnits="objectBoundingBox" id="filter-2">
            <feOffset dx="0" dy="0" in="SourceAlpha" result="shadowOffsetOuter1"></feOffset>
            <feGaussianBlur stdDeviation="0.5" in="shadowOffsetOuter1" result="shadowBlurOuter1"></feGaussianBlur>
            <feComposite in="shadowBlurOuter1" in2="SourceAlpha" operator="out" result="shadowBlurOuter1"></feComposite>
            <feColorMatrix values="0 0 0 0 0.301941803   0 0 0 0 0.296602588   0 0 0 0 0.296602588  0 0 0 0.177638767 0" type="matrix" in="shadowBlurOuter1"></feColorMatrix>
        </filter>
    </defs>
    <g id="HSS" stroke="none" stroke-width="1" fill="none" fill-rule="evenodd">
        <g id="椭圆形备份-7">
            <use fill="black" fill-opacity="1" filter="url(#filter-2)" xlink:href="#path-1"></use>
            <circle stroke="#FFFFFF" stroke-width="1" stroke-linejoin="square" fill="SeaGreen" fill-rule="evenodd" cx="12" cy="12" r="11.5"></circle>
        </g>
        <path d="M12,13.75 C12.4666667,13.75 12.9215594,13.75 13.4,13.6864407 C15,13.4465967 15.2455212,13.2900684 16,12.7966102 C16.6,12.4152542 17,11.9067797 17,11.3347458 L17,10 C17,11.3347458 14.7333333,12.161017 12,12.161017 C9.26666667,12.161017 7,11.3347458 7,10 L7,11.3347458 C7,12.6694915 9.2,13.75 12,13.75 Z M12,16.25 C12.4666667,16.25 12.9215594,16.25 13.4,16.1864407 C15,15.9465967 15.2455212,15.7900684 16,15.2966102 C16.6,14.9152542 17,14.4067797 17,13.8347458 L17,12.5 C17,13.8347458 14.7333333,14.661017 12,14.661017 C9.26666667,14.661017 7,13.8347458 7,12.5 L7,13.8347458 C7,15.1694915 9.2,16.25 12,16.25 Z M12,18.75 C12.4666667,18.75 12.9215594,18.75 13.4,18.6864407 C15,18.4465967 15.2455212,18.2900684 16,17.7966102 C16.6,17.4152542 17,16.9067797 17,16.3347458 L17,15 C17,16.3347458 14.7333333,17.161017 12,17.161017 C9.26666667,17.161017 7,16.3347458 7,15 L7,16.3347458 C7,17.6694915 9.2,18.75 12,18.75 Z M12,11.25 C14.7333333,11.25 17,10.0426136 17,8.55113636 L17,7.69886364 C17,6.20738636 14.7333333,5 12,5 C9.26666667,5 7,6.20738636 7,7.69886364 L7,8.55113636 C7,10.0426136 9.2,11.25 12,11.25 Z" id="形状" fill="#FFFFFF" fill-rule="nonzero"></path>
    </g>
</svg>