<?xml version="1.0" encoding="UTF-8"?>
<svg width="24px" height="24px" viewBox="0 0 24 24" version="1.1" xmlns="http://www.w3.org/2000/svg" xmlns:xlink="http://www.w3.org/1999/xlink">
    <!-- Generator: Sketch 60 (88103) - https://sketch.com -->
    <title>ODU</title>
    <desc>Created with Sketch.</desc>
    <defs>
        <circle id="path-1" cx="12" cy="12" r="12"></circle>
        <filter x="-6.2%" y="-6.2%" width="112.5%" height="112.5%" filterUnits="objectBoundingBox" id="filter-2">
            <feOffset dx="0" dy="0" in="SourceAlpha" result="shadowOffsetOuter1"></feOffset>
            <feGaussianBlur stdDeviation="0.5" in="shadowOffsetOuter1" result="shadowBlurOuter1"></feGaussianBlur>
            <feComposite in="shadowBlurOuter1" in2="SourceAlpha" operator="out" result="shadowBlurOuter1"></feComposite>
            <feColorMatrix values="0 0 0 0 0.301941803   0 0 0 0 0.296602588   0 0 0 0 0.296602588  0 0 0 0.177638767 0" type="matrix" in="shadowBlurOuter1"></feColorMatrix>
        </filter>
    </defs>
    <g id="ODU" stroke="none" stroke-width="1" fill="none" fill-rule="evenodd">
        <g id="椭圆形备份-7">
            <use fill="black" fill-opacity="1" filter="url(#filter-2)" xlink:href="#path-1"></use>
            <circle stroke="#FFFFFF" stroke-width="1" stroke-linejoin="square" fill="SeaGreen" fill-rule="evenodd" cx="12" cy="12" r="11.5"></circle>
        </g>
        <path d="M16.8648194,16.9508283 C16.7229556,17.0341814 16.6111644,17.0750408 16.4706081,17.0750408 C16.0888181,17.0750408 15.7776331,16.771047 15.7776331,16.391872 C15.7776331,16.1293914 15.9293031,15.9061358 16.16498,15.7809426 C17.8833619,14.8029326 18.9646644,13.0083889 18.9646644,11.0304683 C18.9646644,9.054182 17.8846694,7.25996513 16.1626919,6.27868638 C15.9315913,6.1554545 15.7675,5.9279495 15.7675,5.66416138 C15.7675,5.28498638 16.0793388,4.98066575 16.4608019,4.98066575 C16.5980894,4.98066575 16.7026894,5.01825638 16.847495,5.09964825 C18.9950637,6.32216075 20.34375,8.56092763 20.34375,11.0304683 C20.34375,13.4937983 19.0009475,15.7283158 16.8648194,16.9508283 Z M17.401875,11.527972 C17.401875,12.9799508 16.57292,14.2939883 15.2562675,15.008537 C15.132055,15.0690089 14.9941138,15.1141176 14.8780731,15.1141176 C14.4923606,15.1141176 14.1736575,14.8173151 14.1736575,14.4427164 C14.1747825,14.1957125 14.3117016,13.9693564 14.5299512,13.8536876 C15.4268962,13.3790651 15.9891212,12.498137 15.9891212,11.527972 C15.9891212,10.5408095 15.4063031,9.64582575 14.4854962,9.17806763 C14.26649,9.05385513 14.133125,8.83615638 14.133125,8.5952495 C14.133125,8.219997 14.4515012,7.92254075 14.8372138,7.92254075 C14.8610756,7.92254075 14.886245,7.92417513 14.9114144,7.927117 C15.0036297,7.94027037 15.0935322,7.96634978 15.1784712,8.00458638 C16.5421937,8.71357825 17.401875,10.0485358 17.401875,11.5276451 L17.401875,11.527972 Z M9.99521438,16.8936251 C8.76518375,16.0319826 8.10260813,15.6416939 7.84470375,15.5469001 L5.8030425,15.5469001 C5.78408375,15.5469001 5.78408375,15.5469001 5.770355,15.5459195 L5.7638175,15.5455926 L5.75629938,15.5449389 L5.05744063,15.5452658 C4.37950187,15.5452658 4,15.170667 4,14.5182245 L4,7.86272263 C4,7.187072 4.32360625,6.83600825 5.05744062,6.83600825 L8.22649375,6.8353545 C8.47263063,6.73435013 9.0717925,6.34733013 10.1560369,5.5069345 C10.7924625,5.014007 11.9273725,4.08502825 11.7923731,4.1863595 C11.9403533,4.06461759 12.1263703,3.99867872 12.3179881,4.00002007 C12.4301063,4.00002007 12.5422244,4.022922 12.6468244,4.06705013 C12.9400313,4.19224325 13.128965,4.470087 13.128965,4.778657 L13.1292919,5.72496013 L13.1292919,6.0691595 L13.1296188,7.10796825 C13.1448775,7.16411524 13.1525005,7.22204797 13.1525005,7.28023138 L13.1407325,12.4425683 L13.1407325,12.461527 L13.1328875,15.9983145 L13.128965,17.6045783 C13.128965,17.9046495 12.9491837,18.1772633 12.6680713,18.3067058 C12.3887751,18.4342801 12.0621609,18.3995766 11.8159081,18.2161614 L11.8126394,18.2135464 C11.617495,18.0612226 10.7104169,17.3940708 9.99521437,16.8936251 L9.99521438,16.8936251 Z M11.4301956,6.18912263 C9.9608925,7.32011013 9.19044812,7.8002895 8.66548687,7.93823075 L8.66548687,14.5963476 C9.18619875,14.8356201 9.97298688,15.3213564 11.17556,16.1588101 C11.4386944,16.3418601 11.7096738,16.5334089 11.9796725,16.7275726 C11.9810842,15.181236 11.9825007,13.6348993 11.9839219,12.0885626 L11.9839219,11.7646295 L11.9884981,7.252447 C11.9822916,7.21163378 11.9818515,7.17015085 11.9871906,7.12921513 C11.9879461,7.12106344 11.9883822,7.11288531 11.9884981,7.1046995 L11.9839219,6.2051395 L11.9839219,6.19435263 L11.9816338,5.75830138 C11.7920463,5.90866388 11.60965,6.05118138 11.4305225,6.18912263 L11.4301956,6.18912263 Z M7.51913625,7.98363854 L5.44151875,7.98363854 C5.2094375,7.98363854 5.21695562,7.97614825 5.21695562,8.2082295 L5.21695562,14.2250176 C5.21695562,14.4054526 5.20584187,14.388782 5.32220937,14.388782 L7.51946312,14.388782 L7.51946312,7.98363854 L7.51913625,7.98363854 Z" id="形状" fill="#FFFFFF" fill-rule="nonzero" transform="translate(12.171875, 11.191385) scale(-1, 1) translate(-12.171875, -11.191385) "></path>
    </g>
</svg>