<?xml version="1.0" encoding="UTF-8"?>
<svg width="13px" height="13px" viewBox="0 0 13 13" version="1.1" xmlns="http://www.w3.org/2000/svg" xmlns:xlink="http://www.w3.org/1999/xlink">
    <!-- Generator: Sketch 57 (83077) - https://sketch.com -->
    <title>e-detail</title>
    <desc>Created with Sketch.</desc>
    <g id="Page-1" stroke="none" stroke-width="1" fill="none" fill-rule="evenodd">
        <g id="Desktop-HD" transform="translate(-1261.000000, -278.000000)" fill="#2D3040" fill-rule="nonzero">
            <g id="Group-5" transform="translate(1261.000000, 278.000000)">
                <g id="e-detail">
                    <path d="M0.928192383,6.49738477 L0.928192383,6.50261523 C0.928192383,9.57839746 3.42160254,12.0717949 6.49737207,12.0717949 L6.50261523,12.0717949 C9.57839746,12.0717949 12.0717949,9.57839746 12.0717949,6.50261523 L12.0717949,6.49738477 C12.0717949,3.42160254 9.57839746,0.928205078 6.50261523,0.928205078 L6.49738477,0.928205078 C3.42160254,0.928205078 0.928192383,3.42160254 0.928192383,6.49738477 L0.928192383,6.49738477 Z M6.50261523,0 C10.0910215,0 13,2.90897852 13,6.49738477 L13,6.50261523 C13,10.0910215 10.0910215,13 6.50261523,13 L6.49738477,13 C2.90897852,13 0,10.0910215 0,6.50261523 L0,6.49738477 C0,2.90897852 2.90897852,0 6.49738477,0 L6.50261523,0 Z M3.7375,3.575 L9.2625,3.575 C9.53174219,3.575 9.75,3.79325781 9.75,4.0625 C9.75,4.33174219 9.53174219,4.55 9.2625,4.55 L3.7375,4.55 C3.46825781,4.55 3.25,4.33174219 3.25,4.0625 C3.25,3.79325781 3.46825781,3.575 3.7375,3.575 Z M3.7375,6.0125 L9.2625,6.0125 C9.53174219,6.0125 9.75,6.23075781 9.75,6.5 C9.75,6.76924219 9.53174219,6.9875 9.2625,6.9875 L3.7375,6.9875 C3.46825781,6.9875 3.25,6.76924219 3.25,6.5 C3.25,6.23075781 3.46825781,6.0125 3.7375,6.0125 Z M3.7375,8.45 L9.2625,8.45 C9.53174219,8.45 9.75,8.66825781 9.75,8.9375 C9.75,9.20674219 9.53174219,9.425 9.2625,9.425 L3.7375,9.425 C3.46825781,9.425 3.25,9.20674219 3.25,8.9375 C3.25,8.66825781 3.46825781,8.45 3.7375,8.45 Z" id="Shape"></path>
                </g>
            </g>
        </g>
    </g>
</svg>