<?xml version="1.0" encoding="UTF-8"?>
<svg width="24px" height="24px" viewBox="0 0 24 24" version="1.1" xmlns="http://www.w3.org/2000/svg" xmlns:xlink="http://www.w3.org/1999/xlink">
    <!-- Generator: Sketch 60 (88103) - https://sketch.com -->
    <title>Carrier</title>
    <desc>Created with Sketch.</desc>
    <defs>
        <circle id="path-1" cx="12" cy="12" r="12"></circle>
        <filter x="-6.2%" y="-6.2%" width="112.5%" height="112.5%" filterUnits="objectBoundingBox" id="filter-2">
            <feOffset dx="0" dy="0" in="SourceAlpha" result="shadowOffsetOuter1"></feOffset>
            <feGaussianBlur stdDeviation="0.5" in="shadowOffsetOuter1" result="shadowBlurOuter1"></feGaussianBlur>
            <feComposite in="shadowBlurOuter1" in2="SourceAlpha" operator="out" result="shadowBlurOuter1"></feComposite>
            <feColorMatrix values="0 0 0 0 0.301941803   0 0 0 0 0.296602588   0 0 0 0 0.296602588  0 0 0 0.177638767 0" type="matrix" in="shadowBlurOuter1"></feColorMatrix>
        </filter>
    </defs>
    <g id="Carrier" stroke="none" stroke-width="1" fill="none" fill-rule="evenodd">
        <g id="椭圆形备份-7">
            <use fill="black" fill-opacity="1" filter="url(#filter-2)" xlink:href="#path-1"></use>
            <circle stroke="#FFFFFF" stroke-width="1" stroke-linejoin="square" fill="orange" fill-rule="evenodd" cx="12" cy="12" r="11.5"></circle>
        </g>
        <path d="M19.2116583,11.0610424 C19.2621,11.0610424 19.3121563,11.0698265 19.359584,11.0870011 C19.5601231,11.1596208 19.6745822,11.3645242 19.6401633,11.5676123 L19.6201549,11.6434234 L18.157,15.6810424 L18.1684716,15.6821647 C18.5905334,15.7349841 18.9170754,16.0950935 18.9170754,16.531471 C18.9170754,16.6643569 18.8861361,16.795418 18.8267076,16.9142748 L18.4837112,17.6002678 C18.3143191,17.9390518 17.968056,18.1530542 17.589284,18.1530542 L7.05694803,18.1530542 C6.67817597,18.1530542 6.33191285,17.9390518 6.16252084,17.6002678 L5.81952436,16.9142748 C5.60810762,16.4914413 5.77949475,15.9772799 6.20232824,15.7658632 C6.2923623,15.7208462 6.3893992,15.6921764 6.48892752,15.6809188 L5.02607707,11.6434234 C4.94437998,11.417817 5.06104156,11.1686982 5.286648,11.0870011 C5.33407573,11.0698265 5.38413205,11.0610424 5.43457367,11.0610424 C5.80633277,11.0610424 6.13827792,11.293877 6.26485642,11.6434234 L7.725,15.6750424 L16.921,15.6750424 L18.3813756,11.6434234 C18.4938898,11.3327155 18.768669,11.1142243 19.0894403,11.0695066 L19.2116583,11.0610424 Z M11.0533672,4 C11.6417874,4 12.1063296,4.46454226 12.1063296,5.05296245 C12.1063296,5.09849496 12.103548,5.14328572 12.0981427,5.18717688 L17.9649155,7.56789814 C18.0474567,7.6174229 18.0947992,7.69334679 18.1116334,7.7769071 C18.1905375,7.75750328 18.274992,7.74730757 18.3621654,7.74730757 C18.9505856,7.74730757 19.4151278,8.21184982 19.4151278,8.80027002 C19.4151278,9.34771095 19.0130366,9.78792755 18.4831856,9.84658828 L16.5980683,13.4096235 C16.807597,13.6011328 16.9375691,13.8777169 16.9375691,14.1889602 C16.9375691,14.7773804 16.4730269,15.2419227 15.8846067,15.2419227 C15.4044267,15.2419227 15.0067416,14.932567 14.876681,14.4989853 L9.71357859,14.4989632 C9.55879911,14.8718811 9.17070872,15.1490142 8.73065586,15.1490142 C8.14223566,15.1490142 7.67769341,14.684472 7.67769341,14.0960518 C7.67769341,13.7925508 7.80127966,13.5220062 8.00170622,13.3311639 L6.07363336,9.49783138 C5.57293792,9.41444435 5.20013468,8.98673212 5.20013468,8.4596057 C5.20013468,7.87118551 5.66467694,7.40664324 6.25309714,7.40664324 C6.46013388,7.40664324 6.65183457,7.46415344 6.81336014,7.5643348 L10.0143218,5.22743169 C10.0051614,5.17077904 10.0004047,5.11250497 10.0004047,5.05296245 C10.0004047,4.46454224 10.464947,4 11.0533672,4 Z M15.8846067,13.7553875 C15.6368508,13.7553875 15.4510339,13.9412044 15.4510339,14.1889602 C15.4510339,14.4367161 15.6368508,14.622533 15.8846067,14.622533 C16.1323625,14.622533 16.3181794,14.4367161 16.3181794,14.1889602 C16.3181794,13.9412044 16.1323625,13.7553875 15.8846067,13.7553875 Z M8.73065586,13.6315095 C8.48289998,13.6315095 8.29708309,13.8173264 8.29708309,14.0650823 C8.29708309,14.3128382 8.48289999,14.4986551 8.73065586,14.4986551 C8.97841172,14.4986551 9.16422863,14.3128382 9.16422863,14.0650823 C9.16422863,13.8173264 8.97841172,13.6315095 8.73065586,13.6315095 Z M10.9294892,11.680432 C10.8404013,11.680432 10.754153,11.6697835 10.6719265,11.6496689 L9.52911773,13.4041066 C9.64370511,13.53668 9.72525104,13.6988961 9.76191059,13.8789101 L14.876681,13.8789352 C14.8780584,13.8743436 14.8794657,13.8697659 14.8809029,13.8652023 L11.676628,11.3746084 C11.4869399,11.5642965 11.2236993,11.680432 10.9294892,11.680432 Z M17.5119116,9.42720379 L11.9817905,10.5890987 C11.9822301,10.6018276 11.9824517,10.614619 11.9824517,10.6274696 C11.9824517,10.6915654 11.9769397,10.7541913 11.966356,10.814907 L15.2349131,13.355879 C15.4129613,13.2176612 15.6378955,13.1359978 15.8846067,13.1359978 C15.9360934,13.1359978 15.9866318,13.1395544 16.0359934,13.1464395 L17.8480656,9.72255242 C17.7153717,9.64942562 17.6008411,9.54849683 17.5119116,9.42720379 Z M6.72248934,9.40513265 L8.5581868,13.0566849 C8.6142106,13.0477347 8.67181384,13.0430893 8.73065586,13.0430893 C8.82473044,13.0430893 8.91563865,13.0549633 9.00198833,13.077319 L10.141091,11.3308865 C9.97595998,11.14542 9.87652676,10.8997025 9.87652676,10.6274696 C9.87652676,10.5612723 9.88240612,10.4966429 9.8936798,10.4340663 L7.12418751,9.05705838 C7.02323775,9.20529204 6.88515398,9.32550117 6.72248934,9.40513265 Z M10.9294892,10.1938968 C10.6817333,10.1938968 10.4959165,10.3797137 10.4959165,10.6274696 C10.4959165,10.8752255 10.6817334,11.0610424 10.9294892,11.0610424 C11.1772451,11.0610424 11.363062,10.8752254 11.363062,10.6274696 C11.363062,10.3797137 11.1772451,10.1938968 10.9294892,10.1938968 Z M11.3641461,6.06066161 L11.3634648,9.66542082 C11.5299665,9.73932508 11.6726827,9.8548942 11.7789757,9.99949058 L17.3098298,8.83763585 C17.309413,8.82523877 17.3092029,8.8127824 17.3092029,8.80027002 C17.3092029,8.52614655 17.410022,8.27890816 17.5772169,8.09299797 L11.8355559,5.76329089 C11.7104222,5.90132613 11.5485346,6.00520061 11.3641461,6.06066161 Z M10.2953289,5.78903744 L7.21940151,8.03535079 C7.27460958,8.16322361 7.30536873,8.30482903 7.30604809,8.45453619 L10.1783679,9.88433506 C10.3274705,9.73360068 10.5227046,9.62862454 10.7430473,9.59042975 L10.7433421,6.06088807 C10.5702926,6.00897878 10.4170316,5.9144386 10.2953289,5.78903744 Z M18.3621654,8.33572776 C18.1144095,8.33572776 17.9285926,8.52154467 17.9285926,8.76930053 C17.9285926,9.01705641 18.1144095,9.20287332 18.3621654,9.20287332 C18.6099213,9.20287332 18.7957382,9.01705641 18.7957382,8.76930053 C18.8267076,8.55251414 18.6099212,8.33572776 18.3621654,8.33572776 Z M6.25309714,7.99506343 C6.00534127,7.99506343 5.81952436,8.18088034 5.81952436,8.42863621 C5.81952436,8.67639209 6.00534127,8.86220899 6.25309714,8.86220899 C6.50085302,8.86220899 6.68666991,8.67639208 6.68666991,8.42863621 C6.68666991,8.18088035 6.50085301,7.99506343 6.25309714,7.99506343 Z M11.0533672,4.58842019 C10.8056113,4.58842019 10.6197944,4.7742371 10.6197944,5.02199296 C10.6197944,5.26974883 10.8056113,5.45556575 11.0533672,5.45556575 C11.301123,5.45556575 11.4869399,5.26974884 11.4869399,5.02199296 C11.4869399,4.77423709 11.301123,4.58842019 11.0533672,4.58842019 Z" id="形状结合" fill="#FFFFFF" fill-rule="nonzero"></path>
    </g>
</svg>