<?xml version="1.0" encoding="UTF-8"?>
<svg width="24px" height="24px" viewBox="0 0 24 24" version="1.1" xmlns="http://www.w3.org/2000/svg" xmlns:xlink="http://www.w3.org/1999/xlink">
    <!-- Generator: Sketch 60 (88103) - https://sketch.com -->
    <title>DP</title>
    <desc>Created with Sketch.</desc>
    <defs>
        <circle id="path-1" cx="12" cy="12" r="12"></circle>
        <filter x="-6.2%" y="-6.2%" width="112.5%" height="112.5%" filterUnits="objectBoundingBox" id="filter-2">
            <feOffset dx="0" dy="0" in="SourceAlpha" result="shadowOffsetOuter1"></feOffset>
            <feGaussianBlur stdDeviation="0.5" in="shadowOffsetOuter1" result="shadowBlurOuter1"></feGaussianBlur>
            <feComposite in="shadowBlurOuter1" in2="SourceAlpha" operator="out" result="shadowBlurOuter1"></feComposite>
            <feColorMatrix values="0 0 0 0 0.301941803   0 0 0 0 0.296602588   0 0 0 0 0.296602588  0 0 0 0.177638767 0" type="matrix" in="shadowBlurOuter1"></feColorMatrix>
        </filter>
    </defs>
    <g id="DP" stroke="none" stroke-width="1" fill="none" fill-rule="evenodd">
        <g id="椭圆形备份">
            <use fill="black" fill-opacity="1" filter="url(#filter-2)" xlink:href="#path-1"></use>
            <circle stroke="#FFFFFF" stroke-width="1" stroke-linejoin="square" fill="orange" fill-rule="evenodd" cx="12" cy="12" r="11.5"></circle>
        </g>
        <path d="M10.5,8 L10.5,9 L13.5,9 L13.5,8 L15.5,8 L15.5,9 L17.5,9 L17.5,17 L6.5,17 L6.5,9 L8.5,9 L8.5,8 L10.5,8 Z M9.5,15 L8.5,15 L8.5,16 L9.5,16 L9.5,15 Z M11.5,15 L10.5,15 L10.5,16 L11.5,16 L11.5,15 Z M13.5,15 L12.5,15 L12.5,16 L13.5,16 L13.5,15 Z M15.5,15 L14.5,15 L14.5,16 L15.5,16 L15.5,15 Z M9.5,13 L8.5,13 L8.5,14 L9.5,14 L9.5,13 Z M11.5,13 L10.5,13 L10.5,14 L11.5,14 L11.5,13 Z M13.5,13 L12.5,13 L12.5,14 L13.5,14 L13.5,13 Z M15.5,13 L14.5,13 L14.5,14 L15.5,14 L15.5,13 Z M9.5,11 L8.5,11 L8.5,12 L9.5,12 L9.5,11 Z M11.5,11 L10.5,11 L10.5,12 L11.5,12 L11.5,11 Z M13.5,11 L12.5,11 L12.5,12 L13.5,12 L13.5,11 Z M15.5,11 L14.5,11 L14.5,12 L15.5,12 L15.5,11 Z" id="形状结合" fill="#FFFFFF"></path>
    </g>
</svg>
