<?xml version="1.0" encoding="UTF-8"?>
<svg width="24px" height="24px" viewBox="0 0 24 24" version="1.1" xmlns="http://www.w3.org/2000/svg" xmlns:xlink="http://www.w3.org/1999/xlink">
    <!-- Generator: Sketch 60 (88103) - https://sketch.com -->
    <title>CG</title>
    <desc>Created with Sketch.</desc>
    <defs>
        <circle id="path-1" cx="12" cy="12" r="12"></circle>
        <filter x="-6.2%" y="-6.2%" width="112.5%" height="112.5%" filterUnits="objectBoundingBox" id="filter-2">
            <feOffset dx="0" dy="0" in="SourceAlpha" result="shadowOffsetOuter1"></feOffset>
            <feGaussianBlur stdDeviation="0.5" in="shadowOffsetOuter1" result="shadowBlurOuter1"></feGaussianBlur>
            <feComposite in="shadowBlurOuter1" in2="SourceAlpha" operator="out" result="shadowBlurOuter1"></feComposite>
            <feColorMatrix values="0 0 0 0 0.301941803   0 0 0 0 0.296602588   0 0 0 0 0.296602588  0 0 0 0.177638767 0" type="matrix" in="shadowBlurOuter1"></feColorMatrix>
        </filter>
    </defs>
    <g id="CG" stroke="none" stroke-width="1" fill="none" fill-rule="evenodd">
        <g id="椭圆形备份-7">
            <use fill="black" fill-opacity="1" filter="url(#filter-2)" xlink:href="#path-1"></use>
            <circle stroke="#FFFFFF" stroke-width="1" stroke-linejoin="square" fill="blue" fill-rule="evenodd" cx="12" cy="12" r="11.5"></circle>
        </g>
        <path d="M18.4801234,15.1585127 L21,16.5792564 L18.4921228,18 L18.4921228,17.1663405 L18.175,17.166 L18.175,15.992 L18.4801234,15.9921722 L18.4801234,15.1585127 Z M5.5142229,15.1585127 L5.5142229,15.9921722 L5.752,15.992 L5.752,17.166 L5.52622231,17.1663405 L5.52622231,18 L3.00634571,16.5792564 L5.5142229,15.1585127 Z M17.611,17.166 L17.046,17.166 L17.046,15.992 L17.611,15.992 L17.611,17.166 Z M16.042028,15.9921722 L16.481,15.992 L16.481,17.166 L16.042028,17.1663405 L15.917,17.163 L15.917,15.988 L16.042028,15.9921722 Z M6.882,15.992 L6.882,17.166 L6.317,17.166 L6.317,15.992 L6.882,15.992 Z M8.0122046,15.9382373 L8.0129345,17.1272794 C7.81941207,17.1527853 7.61648142,17.1659603 7.40245108,17.1663405 L7.446,17.165 L7.44734533,15.9916585 C7.64776367,15.9882638 7.83542311,15.9702126 8.0122046,15.9382373 Z M15.3518984,15.9253834 L15.3520536,17.1202263 C15.1585593,17.0943272 14.9701271,17.0577625 14.7871118,17.0111436 L14.7866784,15.7416041 C14.9640941,15.8217198 15.1505187,15.8833132 15.3518984,15.9253834 Z M9.14207854,15.4641367 L9.1412834,16.799325 C8.96123727,16.8843991 8.77394929,16.955299 8.57705537,17.0113761 L8.57743702,15.7755721 C8.77915567,15.6935526 8.96597176,15.5891966 9.14207854,15.4641367 Z M15.3518961,7.38597403 L15.3518311,8.80195478 C15.1548985,8.97410738 14.970107,9.17181 14.7935707,9.39263495 L14.7875866,9.36059775 L14.7869434,7.77063496 C14.9695145,7.62675205 15.1571705,7.49825374 15.3518961,7.38597403 Z M5.50787719,6 L5.50787719,6.83365949 L5.752,6.833 L5.752,8.007 L5.5198766,8.00782779 L5.5198766,8.84148728 L3,7.42074364 L5.50787719,6 Z M18.3882225,6 L20.9080991,7.42074364 L18.3882225,8.84148728 L18.3882225,8.00782779 L18.175,8.007 L18.175,6.833 L18.3882225,6.83365949 L18.3882225,6 Z M9.14047361,7.3151042 L9.14178592,8.63729645 C8.9612717,8.52917054 8.77239505,8.43337195 8.57679763,8.3511732 L8.57605049,7.10042593 C8.76861426,7.16212273 8.95702383,7.23390039 9.14047361,7.3151042 Z M16.4812619,6.94272516 L16.4809178,8.1573043 C16.2816791,8.21979005 16.0944001,8.30120714 15.917101,8.40031874 L15.9169498,7.11475699 C16.0979761,7.0445609 16.2856542,6.98703796 16.4812619,6.94272516 Z M8.01187761,6.95143733 L8.01146168,8.15720602 C7.82705404,8.10757964 7.63852117,8.06972133 7.44702818,8.04453424 L7.44661537,6.86320805 C7.63752749,6.88301432 7.82616393,6.91259937 8.01187761,6.95143733 Z M17.611,6.833 L17.611,8.007 L17.4941539,8.00782779 C17.3386885,8.00861484 17.18948,8.01808813 17.0459957,8.03591476 L17.0453412,6.85409987 C17.1069881,6.84843624 17.16941,6.84393856 17.2326387,6.84062015 L17.4941539,6.83365949 L17.611,6.833 Z M6.317,6.833 L6.882,6.833 L6.882,8.007 L6.317,8.007 L6.317,6.833 Z M11,8 L12,8 C12.5522847,8 13,8.44771525 13,9 L13,16 C13,16.5522847 12.5522847,17 12,17 L11,17 C10.4477153,17 10,16.5522847 10,16 L10,9 C10,8.44771525 10.4477153,8 11,8 Z" id="形状结合" fill="#FFFFFF" fill-rule="nonzero"></path>
    </g>
</svg>