<?xml version="1.0" encoding="UTF-8"?>
<svg width="24px" height="24px" viewBox="0 0 24 24" version="1.1" xmlns="http://www.w3.org/2000/svg" xmlns:xlink="http://www.w3.org/1999/xlink">
    <!-- Generator: Sketch 60 (88103) - https://sketch.com -->
    <title>ONT</title>
    <desc>Created with Sketch.</desc>
    <defs>
        <circle id="path-1" cx="12" cy="12" r="12"></circle>
        <filter x="-6.2%" y="-6.2%" width="112.5%" height="112.5%" filterUnits="objectBoundingBox" id="filter-2">
            <feOffset dx="0" dy="0" in="SourceAlpha" result="shadowOffsetOuter1"></feOffset>
            <feGaussianBlur stdDeviation="0.5" in="shadowOffsetOuter1" result="shadowBlurOuter1"></feGaussianBlur>
            <feComposite in="shadowBlurOuter1" in2="SourceAlpha" operator="out" result="shadowBlurOuter1"></feComposite>
            <feColorMatrix values="0 0 0 0 0.301941803   0 0 0 0 0.296602588   0 0 0 0 0.296602588  0 0 0 0.177638767 0" type="matrix" in="shadowBlurOuter1"></feColorMatrix>
        </filter>
    </defs>
    <g id="ONT" stroke="none" stroke-width="1" fill="none" fill-rule="evenodd">
        <g id="椭圆形备份-7">
            <use fill="black" fill-opacity="1" filter="url(#filter-2)" xlink:href="#path-1"></use>
            <circle stroke="#FFFFFF" stroke-width="1" stroke-linejoin="square" fill="blue" fill-rule="evenodd" cx="12" cy="12" r="11.5"></circle>
        </g>
        <path d="M4.96551724,6 L4.96551724,18.4482759 L3,15.1724138 L3,9.27586207 L4.96551724,6 Z M20.0344828,6 L22,9.27586207 L22,15.1724138 L20.0344828,18.4482759 L20.0344828,6 Z M17.9560048,6.65517241 L19.3793103,7.8412604 L17.9560048,9.02734839 L17.9556897,8.30917241 L16.4448558,8.30930485 C15.4776109,8.30930485 14.6027868,8.70500531 13.973434,9.34335579 L13.9976541,9.35469998 C15.1112767,9.93194542 15.872211,11.0951626 15.872211,12.4361055 C15.872211,13.3894321 15.4876103,14.2529304 14.8651043,14.8799051 L14.8718146,14.8731281 C15.2899813,15.0871765 15.7583609,15.218186 16.2544435,15.2450109 L16.4448558,15.250146 L17.7186897,15.2491724 L17.7187872,14.4833532 L19.1420927,15.6694411 L17.7187872,16.8555291 L17.7186897,16.1551724 L16.4197769,16.1552493 C15.5564402,16.1552493 14.7512548,15.9062747 14.0721045,15.4762095 C13.5793668,15.7492543 13.0096581,15.9046653 12.4036511,15.9046653 C11.8368446,15.9046653 11.3017921,15.76871 10.8293253,15.5276308 L10.8372165,15.5316446 C10.2371346,15.8920578 9.543834,16.1128552 8.80211666,16.1497441 L8.58022315,16.1552493 L7.28068966,16.1551724 L7.28121284,16.8555291 L5.85790725,15.6694411 L7.28121284,14.4833532 L7.28068966,15.2491724 L8.55514421,15.250146 L8.74555647,15.2450109 C9.19150375,15.220897 9.61506449,15.1125927 10.0006239,14.9357129 C9.34339192,14.305263 8.93509128,13.4183661 8.93509128,12.4361055 C8.93509128,11.0301542 9.77159361,9.81957844 10.9740524,9.27492414 L10.9620018,9.28041039 L10.9620018,9.28041039 C10.381517,8.72019053 9.60512289,8.36091974 8.74555647,8.31443994 L8.55514421,8.30930485 L7.04368966,8.30917241 L7.04399524,9.02734839 L5.62068966,7.8412604 L7.04399524,6.65517241 L7.04368966,7.36617241 L8.58022315,7.36682521 C9.95752714,7.36682521 11.1868326,8.00048243 11.9925155,8.99217297 L12.0257133,8.98789868 C12.1498454,8.97444754 12.2759423,8.96754564 12.4036511,8.96754564 C12.6125009,8.96754564 12.8170396,8.98600407 13.0157246,9.02137855 L12.9883813,9.01662345 L12.9883813,9.01662345 C13.7933762,8.01073009 15.0313805,7.36682521 16.4197769,7.36682521 L17.9556897,7.36617241 L17.9560048,6.65517241 Z M12.4036511,9.81541582 C10.9562842,9.81541582 9.78296146,10.9887385 9.78296146,12.4361055 C9.78296146,13.8834724 10.9562842,15.0567951 12.4036511,15.0567951 C13.851018,15.0567951 15.0243408,13.8834724 15.0243408,12.4361055 C15.0243408,10.9887385 13.851018,9.81541582 12.4036511,9.81541582 Z" id="形状结合" fill="#FFFFFF"></path>
    </g>
</svg>