<?xml version="1.0" encoding="UTF-8"?>
<svg width="24px" height="24px" viewBox="0 0 24 24" version="1.1" xmlns="http://www.w3.org/2000/svg" xmlns:xlink="http://www.w3.org/1999/xlink">
    <!-- Generator: Sketch 60 (88103) - https://sketch.com -->
    <title>OLT</title>
    <desc>Created with Sketch.</desc>
    <defs>
        <circle id="path-1" cx="12" cy="12" r="12"></circle>
        <filter x="-6.2%" y="-6.2%" width="112.5%" height="112.5%" filterUnits="objectBoundingBox" id="filter-2">
            <feOffset dx="0" dy="0" in="SourceAlpha" result="shadowOffsetOuter1"></feOffset>
            <feGaussianBlur stdDeviation="0.5" in="shadowOffsetOuter1" result="shadowBlurOuter1"></feGaussianBlur>
            <feComposite in="shadowBlurOuter1" in2="SourceAlpha" operator="out" result="shadowBlurOuter1"></feComposite>
            <feColorMatrix values="0 0 0 0 0.301941803   0 0 0 0 0.296602588   0 0 0 0 0.296602588  0 0 0 0.177638767 0" type="matrix" in="shadowBlurOuter1"></feColorMatrix>
        </filter>
    </defs>
    <g id="OLT" stroke="none" stroke-width="1" fill="none" fill-rule="evenodd">
        <g id="椭圆形备份-2">
            <use fill="black" fill-opacity="1" filter="url(#filter-2)" xlink:href="#path-1"></use>
            <circle stroke="#FFFFFF" stroke-width="1" stroke-linejoin="square" fill="DeepSkyBlue" fill-rule="evenodd" cx="12" cy="12" r="11.5"></circle>
        </g>
        <path d="M17.5,15 L17.5,18 L6.5,18 L6.5,15 L17.5,15 Z M8.5,16 L7.5,16 L7.5,17 L8.5,17 L8.5,16 Z M10.5,16 L9.5,16 L9.5,17 L10.5,17 L10.5,16 Z M12.5,16 L11.5,16 L11.5,17 L12.5,17 L12.5,16 Z M16.5,16 L14.5,16 L14.5,17 L16.5,17 L16.5,16 Z M17.5,11 L17.5,14 L6.5,14 L6.5,11 L17.5,11 Z M8.5,12 L7.5,12 L7.5,13 L8.5,13 L8.5,12 Z M10.5,12 L9.5,12 L9.5,13 L10.5,13 L10.5,12 Z M12.5,12 L11.5,12 L11.5,13 L12.5,13 L12.5,12 Z M16.5,12 L14.5,12 L14.5,13 L16.5,13 L16.5,12 Z M17.5,7 L17.5,10 L6.5,10 L6.5,7 L17.5,7 Z M8.5,8 L7.5,8 L7.5,9 L8.5,9 L8.5,8 Z M10.5,8 L9.5,8 L9.5,9 L10.5,9 L10.5,8 Z M12.5,8 L11.5,8 L11.5,9 L12.5,9 L12.5,8 Z M16.5,8 L14.5,8 L14.5,9 L16.5,9 L16.5,8 Z" id="形状结合" fill="#FFFFFF"></path>
    </g>
</svg>
