<?xml version="1.0" encoding="UTF-8"?>
<svg width="24px" height="24px" viewBox="0 0 24 24" version="1.1" xmlns="http://www.w3.org/2000/svg" xmlns:xlink="http://www.w3.org/1999/xlink">
    <!-- Generator: Sketch 60 (88103) - https://sketch.com -->
    <title>RNC</title>
    <desc>Created with Sketch.</desc>
    <defs>
        <circle id="path-1" cx="12" cy="12" r="12"></circle>
        <filter x="-6.2%" y="-6.2%" width="112.5%" height="112.5%" filterUnits="objectBoundingBox" id="filter-2">
            <feOffset dx="0" dy="0" in="SourceAlpha" result="shadowOffsetOuter1"></feOffset>
            <feGaussianBlur stdDeviation="0.5" in="shadowOffsetOuter1" result="shadowBlurOuter1"></feGaussianBlur>
            <feComposite in="shadowBlurOuter1" in2="SourceAlpha" operator="out" result="shadowBlurOuter1"></feComposite>
            <feColorMatrix values="0 0 0 0 0.301941803   0 0 0 0 0.296602588   0 0 0 0 0.296602588  0 0 0 0.177638767 0" type="matrix" in="shadowBlurOuter1"></feColorMatrix>
        </filter>
    </defs>
    <g id="RNC" stroke="none" stroke-width="1" fill="none" fill-rule="evenodd">
        <g id="椭圆形备份-7">
            <use fill="black" fill-opacity="1" filter="url(#filter-2)" xlink:href="#path-1"></use>
            <circle stroke="#FFFFFF" stroke-width="1" stroke-linejoin="square" fill="DeepSkyBlue" fill-rule="evenodd" cx="12" cy="12" r="11.5"></circle>
        </g>
        <path d="M12,7 C13.1834673,7 14.1428571,7.57563389 14.1428571,8.28571429 C14.1428571,8.34396845 14.1364001,8.40131775 14.123892,8.45751856 L18.83,11.286 L18.8571429,11.2857143 C19.9814368,11.2857143 20.9035008,11.8052239 20.9928965,12.46598 L21,12.5714286 C21,13.281509 20.0406102,13.8571429 18.8571429,13.8571429 C18.7659746,13.8571429 18.6761361,13.8537268 18.5879635,13.8470965 L15.4654517,16.1159521 C15.7121836,16.3254268 15.8571429,16.5811277 15.8571429,16.8571429 C15.8571429,17.5672232 14.897753,18.1428571 13.7142857,18.1428571 C12.5308184,18.1428571 11.5714286,17.5672232 11.5714286,16.8571429 C11.5714286,16.6339164 11.6662423,16.423977 11.833025,16.2410313 L6.41971208,13.6040655 C6.06310181,13.7630676 5.62128986,13.8571429 5.14285714,13.8571429 C3.95938982,13.8571429 3,13.281509 3,12.5714286 C3,11.8613482 3.95938982,11.2857143 5.14285714,11.2857143 C5.40648207,11.2857143 5.65898819,11.3142775 5.89224788,11.3665273 L10.0763422,8.85284455 C9.93598338,8.68177853 9.85714286,8.48927066 9.85714286,8.28571429 C9.85714286,7.57563389 10.8165327,7 12,7 Z M16.8363023,13.0001424 L7.16369775,13.0001424 C7.16111673,13.0045222 7.15849728,13.008891 7.15583965,13.0132489 L12.7121616,15.7203969 C13.0112022,15.6252944 13.3522598,15.5714286 13.7142857,15.5714286 C14.030922,15.5714286 14.3315182,15.6126341 14.6019916,15.6865955 L17.5116386,13.5721465 C17.2061349,13.4240865 16.9698071,13.2266891 16.8363023,13.0001424 Z M13.5970074,9.14299893 C13.2046422,9.40595207 12.6345287,9.57142857 12,9.57142857 C11.5844907,9.57142857 11.1966028,9.50047155 10.8681598,9.37765149 L6.84831451,11.7928741 C6.98151509,11.8977545 7.08845396,12.0152898 7.16324594,12.1419489 L16.8367541,12.1419489 C16.9806295,11.898298 17.2434654,11.6884098 17.5833672,11.5374212 Z" id="形状结合" fill="#FFFFFF"></path>
    </g>
</svg>