<?xml version="1.0" encoding="UTF-8"?>
<svg width="24px" height="24px" viewBox="0 0 24 24" version="1.1" xmlns="http://www.w3.org/2000/svg" xmlns:xlink="http://www.w3.org/1999/xlink">
    <!-- Generator: Sketch 60 (88103) - https://sketch.com -->
    <title>用户需求点</title>
    <desc>Created with Sketch.</desc>
    <defs>
        <circle id="path-1" cx="12" cy="12" r="12"></circle>
        <filter x="-6.2%" y="-6.2%" width="112.5%" height="112.5%" filterUnits="objectBoundingBox" id="filter-2">
            <feOffset dx="0" dy="0" in="SourceAlpha" result="shadowOffsetOuter1"></feOffset>
            <feGaussianBlur stdDeviation="0.5" in="shadowOffsetOuter1" result="shadowBlurOuter1"></feGaussianBlur>
            <feComposite in="shadowBlurOuter1" in2="SourceAlpha" operator="out" result="shadowBlurOuter1"></feComposite>
            <feColorMatrix values="0 0 0 0 0.301941803   0 0 0 0 0.296602588   0 0 0 0 0.296602588  0 0 0 0.177638767 0" type="matrix" in="shadowBlurOuter1"></feColorMatrix>
        </filter>
    </defs>
    <g id="用户需求点" stroke="none" stroke-width="1" fill="none" fill-rule="evenodd">
        <g id="椭圆形备份-5">
            <use fill="black" fill-opacity="1" filter="url(#filter-2)" xlink:href="#path-1"></use>
            <circle stroke="#FFFFFF" stroke-width="1" stroke-linejoin="square" fill="#0687F2" fill-rule="evenodd" cx="12" cy="12" r="11.5"></circle>
        </g>
        <path d="M8.16666666,16.3333333 C8.63333333,16.3333333 9.03333333,16.6 9.23333333,17 L9.23333333,17 L11.9,17 C12.0333333,17.3666667 12.2,17.7 12.4333333,18 L12.4333333,18 L9.23333333,18 C9.03333333,18.4 8.63333333,18.6666667 8.16666666,18.6666667 C7.53333333,18.6666667 7,18.1333333 7,17.5 C7,16.8666667 7.53333333,16.3333333 8.16666666,16.3333333 Z M15.6666667,12.6666667 C17.3333333,12.6666667 18.6666667,14 18.6666667,15.6666667 C18.6666667,17.3333333 17.3333333,18.6666667 15.6666667,18.6666667 C14,18.6666667 12.6666667,17.3333333 12.6666667,15.6666667 C12.6666667,14 14,12.6666667 15.6666667,12.6666667 Z M15.7804449,16.0960623 C15.0021913,16.0958007 14.2661061,16.4496878 13.7802825,17.0576797 C14.2661061,17.6656716 15.0021913,18.0195587 15.7804449,18.019297 C16.5586274,18.0196476 17.2946499,17.6657331 17.7802825,17.0576797 C17.2946499,16.4496262 16.5586274,16.0957118 15.7804449,16.0960623 Z M15.7804449,13.2112135 C15.07233,13.2112135 14.4982895,13.785254 14.4982895,14.4933689 C14.4982895,15.2014838 15.07233,15.7755243 15.7804449,15.7755243 C16.4885598,15.7755243 17.0626003,15.2014838 17.0626003,14.4933689 C17.0626003,13.785254 16.4885598,13.2112135 15.7804449,13.2112135 Z M17.3333333,6 C18.0666667,6 18.6666667,6.6 18.6666667,7.33333333 L18.6666667,7.33333333 L18.6666667,8.66666666 C18.6666667,9.4 18.0666667,10 17.3333333,10 L17.3333333,10 L8.03333333,10 C8.2,10.9333333 9,11.6666667 10,11.6666667 L10,11.6666667 L15.6666667,11.6666667 C14.6666667,11.6666667 13.7333333,12.0333333 13.0333333,12.6666667 L13.0333333,12.6666667 L10,12.6666667 C8.43333333,12.6666667 7.13333333,11.5 7,9.96666666 C6.43333333,9.79999998 6,9.29999998 6,8.66666666 L6,8.66666666 L6,7.33333333 C6,6.6 6.6,6 7.33333333,6 L7.33333333,6 Z M13.5,7.33333333 C13.2333333,7.33333333 13,7.56666666 13,7.83333333 L13,7.83333333 L13,8.16666666 C13,8.43333333 13.2333333,8.66666666 13.5,8.66666666 C13.7666667,8.66666666 14,8.43333333 14,8.16666666 L14,8.16666666 L14,7.83333333 C14,7.56666666 13.7666667,7.33333333 13.5,7.33333333 Z M15.1666667,7.33333333 C14.9,7.33333333 14.6666667,7.56666666 14.6666667,7.83333333 L14.6666667,7.83333333 L14.6666667,8.16666666 C14.6666667,8.43333333 14.9,8.66666666 15.1666667,8.66666666 C15.4333333,8.66666666 15.6666667,8.43333333 15.6666667,8.16666666 L15.6666667,8.16666666 L15.6666667,7.83333333 C15.6666667,7.56666666 15.4333333,7.33333333 15.1666667,7.33333333 Z M16.8333333,7.33333333 C16.5666667,7.33333333 16.3333333,7.56666666 16.3333333,7.83333333 L16.3333333,7.83333333 L16.3333333,8.16666666 C16.3333333,8.43333333 16.5666667,8.66666666 16.8333333,8.66666666 C17.1,8.66666666 17.3333333,8.43333333 17.3333333,8.16666666 L17.3333333,8.16666666 L17.3333333,7.83333333 C17.3333333,7.56666666 17.1,7.33333333 16.8333333,7.33333333 Z" id="形状结合" fill="#FFFFFF" fill-rule="nonzero"></path>
    </g>
</svg>