<?xml version="1.0" standalone="no"?><!DOCTYPE svg PUBLIC "-//W3C//DTD SVG 1.1//EN" "http://www.w3.org/Graphics/SVG/1.1/DTD/svg11.dtd"><svg t="1666758581408" class="icon" viewBox="0 0 1024 1024" version="1.1" xmlns="http://www.w3.org/2000/svg" p-id="5766" xmlns:xlink="http://www.w3.org/1999/xlink" width="200" height="200"><path d="M767.317333 256H256a256 256 0 1 0 0 512h512a256 256 0 1 0 0-512h-0.682667z" fill="#B1B1B1" p-id="5767"></path><path d="M588.032 597.333333c22.613333 0 40.96-7.68 54.869333-23.04 14.250667-15.658667 21.376-36.608 21.376-62.848 0-26.112-7.125333-46.848-21.376-62.208-13.781333-15.061333-32.085333-22.570667-54.869333-22.570666-22.826667 0-41.130667 7.509333-54.869333 22.613333-14.08 15.36-21.162667 36.053333-21.162667 62.165333 0 26.24 7.04 47.189333 21.162667 62.848 13.909333 15.36 32.213333 23.04 54.869333 23.04z m0-22.613333a40.96 40.96 0 0 1-34.688-17.194667c-8.704-11.349333-13.056-26.709333-13.056-46.08 0-19.242667 4.352-34.432 13.056-45.653333a41.557333 41.557333 0 0 1 34.688-16.554667 42.24 42.24 0 0 1 34.901333 16.554667c8.704 11.221333 13.056 26.410667 13.056 45.653333 0 19.2-4.352 34.56-13.056 46.08a41.642667 41.642667 0 0 1-34.901333 17.237334z m140.16 19.712V523.52h64.597333v-21.717333h-64.597333v-50.346667h76.032v-21.674667H700.586667v164.650667h27.562666z m134.442667 0V523.52h64.64v-21.717333h-64.64v-50.346667H938.666667v-21.674667h-103.594667v164.650667h27.562667z" fill="#FFFFFF" p-id="5768"></path><path d="M42.666667 298.666667m213.333333 0l0 0q213.333333 0 213.333333 213.333333l0 0q0 213.333333-213.333333 213.333333l0 0q-213.333333 0-213.333333-213.333333l0 0q0-213.333333 213.333333-213.333333Z" fill="#FFFFFF" p-id="5769"></path></svg>