<?xml version="1.0" standalone="no"?><!DOCTYPE svg PUBLIC "-//W3C//DTD SVG 1.1//EN" "http://www.w3.org/Graphics/SVG/1.1/DTD/svg11.dtd"><svg t="1666758570917" class="icon" viewBox="0 0 1024 1024" version="1.1" xmlns="http://www.w3.org/2000/svg" p-id="5614" xmlns:xlink="http://www.w3.org/1999/xlink" width="200" height="200"><path d="M767.317333 256H256a256 256 0 1 0 0 512h512a256 256 0 1 0 0-512h-0.682667z" fill="#03BB66" p-id="5615"></path><path d="M209.877333 597.333333c24.405333 0 44.117333-7.68 59.093334-23.04 15.36-15.658667 23.04-36.608 23.04-62.848 0-26.112-7.68-46.848-23.04-62.208C254.165333 434.176 234.410667 426.666667 209.92 426.666667c-24.576 0-44.245333 7.509333-59.093333 22.613333C135.594667 464.64 128 485.290667 128 511.402667c0 26.24 7.594667 47.189333 22.784 62.848 15.018667 15.36 34.688 23.04 59.093333 23.04z m0-22.613333c-15.701333 0-28.16-5.717333-37.376-17.194667-9.386667-11.349333-14.08-26.709333-14.08-46.08 0-19.242667 4.693333-34.432 14.08-45.653333 9.216-11.008 21.674667-16.554667 37.376-16.554667s28.245333 5.546667 37.632 16.554667c9.386667 11.221333 14.08 26.410667 14.08 45.653333 0 19.2-4.693333 34.56-14.08 46.08-9.386667 11.477333-21.930667 17.237333-37.632 17.237334z m149.418667 19.712v-77.653333c0-7.594667-0.426667-16.64-1.28-27.264l-2.56-26.624h1.28l19.712 34.474666 62.421333 97.066667H469.333333V429.781333h-28.16v76.757334c0 7.594667 0.426667 16.810667 1.28 27.733333l2.56 27.050667h-1.28l-19.669333-34.901334-62.464-96.64h-30.421333v164.650667h28.16z" fill="#FFFFFF" p-id="5616"></path><path d="M768 512m-213.333333 0a213.333333 213.333333 0 1 0 426.666666 0 213.333333 213.333333 0 1 0-426.666666 0Z" fill="#FFFFFF" p-id="5617"></path></svg>