<?xml version="1.0" encoding="UTF-8"?>
<svg width="66px" height="66px" viewBox="0 0 66 66" version="1.1" xmlns="http://www.w3.org/2000/svg" xmlns:xlink="http://www.w3.org/1999/xlink">
    <!-- Generator: Sketch 60 (88103) - https://sketch.com -->
    <title>BSC</title>
    <desc>Created with Sketch.</desc>
    <g id="页面-1" stroke="none" stroke-width="1" fill="none" fill-rule="evenodd">
        <g id="BSC" transform="translate(1.000000, 1.000000)">
            <g id="bg/round-FFFFFF" fill="#FFFFFF" stroke="#666666">
                <rect id="Rectangle" x="0" y="0" width="64" height="64" rx="5"></rect>
            </g>
            <g id="Combined-Distribution-Cabinet" transform="translate(15.000000, 25.000000)">
                <rect id="矩形" fill="#19A5FF" fill-rule="nonzero" opacity="0" x="0" y="0" width="34" height="34"></rect>
                <path d="M12.6187756,27.7840597 L12.6196257,28.9190597 L13.7202628,28.919183 L13.7202628,30.3860755 L12.6196257,30.3860597 L12.6187756,31.4128026 L10.1675676,29.598443 L12.6187756,27.7840597 Z M21.0604176,27.7840597 L23.5116257,29.598443 L21.0604176,31.4128026 L21.0606257,30.3860597 L19.6703809,30.3860755 L19.6703809,28.919183 L21.0606257,28.9190597 L21.0604176,27.7840597 Z M8.78378378,21.8918919 L11.3783784,26.3858616 L8.78378378,30.8798312 L3.59459459,30.8798312 L1,26.3858616 L3.59459459,21.8918919 L8.78378378,21.8918919 Z M30.4054054,21.8918919 L33,26.3858616 L30.4054054,30.8798312 L25.2162162,30.8798312 L22.6216216,26.3858616 L25.2162162,21.8918919 L30.4054054,21.8918919 Z M15.1030311,28.919183 L15.1030311,30.3860755 L14.1393076,30.3860755 L14.1393076,28.919183 L15.1030311,28.919183 Z M16.4857994,28.919183 L16.4857994,30.3860755 L15.522076,30.3860755 L15.522076,28.919183 L16.4857994,28.919183 Z M17.8685677,28.919183 L17.8685677,30.3860755 L16.9048443,30.3860755 L16.9048443,28.919183 L17.8685677,28.919183 Z M19.251336,28.919183 L19.251336,30.3860755 L18.2876126,30.3860755 L18.2876126,28.919183 L19.251336,28.919183 Z M19.3720809,21.6484333 C19.8732169,21.8821169 20.2061049,22.330017 20.3125563,22.8322617 C19.1277741,22.2812403 17.7192943,22.7933789 17.1658345,23.9776975 C16.9228637,23.5250191 16.8899661,22.9679314 17.1236496,22.4667954 C17.5185523,21.6199238 18.5252093,21.2535306 19.3720809,21.6484333 Z M19.8540977,18.9498744 C20.5773349,19.2871254 21.1412861,19.8271825 21.509813,20.4707561 C21.476375,20.4535393 21.4423983,20.4372403 21.4081599,20.4212746 C18.867545,19.2365665 15.847574,20.335746 14.6628659,22.8763609 L14.6168011,22.9796073 C14.4854279,22.2497167 14.5702977,21.4735082 14.9075487,20.750271 C15.7763347,18.8871534 17.9909801,18.0810884 19.8540977,18.9498744 Z M6.72051245,17.6201037 L7.99087858,18.3535499 L7.44054636,19.3067217 L8.32930679,19.8208293 L5.53242122,21.0364579 L5.18672324,18.0064578 L6.1700871,18.5732217 L6.72051245,17.6201037 Z M26.5839061,17.6201037 L27.1343315,18.5732217 L28.1176954,18.0064578 L27.7719974,21.0364579 L24.9751118,19.8208293 L25.8638722,19.3067217 L25.31354,18.3535499 L26.5839061,17.6201037 Z M19.4109999,15.6927485 C20.2810943,16.0984802 20.9926915,16.7060134 21.5160495,17.4336327 C17.8251383,15.9348002 13.586448,17.4775573 11.7216322,20.997278 C11.6556878,20.1044049 11.810288,19.1816015 12.2160197,18.3115072 C13.4797084,15.601518 16.7010108,14.4290598 19.4109999,15.6927485 Z M25.892522,16.4225912 L26.3743837,17.2572001 L25.1040176,17.9906464 L24.6221559,17.1560374 L25.892522,16.4225912 Z M7.41189661,16.4225912 L8.68226273,17.1560374 L8.20040102,17.9906464 L6.93003489,17.2572001 L7.41189661,16.4225912 Z M8.10328076,15.2250787 L9.37364689,15.9585249 L8.89178518,16.7931339 L7.62141905,16.0596877 L8.10328076,15.2250787 Z M25.2011378,15.2250787 L25.6829995,16.0596877 L24.4126334,16.7931339 L23.9307717,15.9585249 L25.2011378,15.2250787 Z M8.79466492,14.0275662 L10.065031,14.7610124 L9.58316933,15.5956214 L8.31280321,14.8621752 L8.79466492,14.0275662 Z M24.5097537,14.0275662 L24.9916154,14.8621752 L23.7212493,15.5956214 L23.2393875,14.7610124 L24.5097537,14.0275662 Z M9.48604908,12.8300537 L10.7564152,13.5634999 L10.2745535,14.3981089 L9.00418736,13.6646627 L9.48604908,12.8300537 Z M23.8183695,12.8300537 L24.3002312,13.6646627 L23.0298651,14.3981089 L22.5480034,13.5634999 L23.8183695,12.8300537 Z M12.2044503,9.48016461 L12.5501278,12.5101529 L11.6610464,11.9966012 L10.9659376,13.2005964 L9.69557152,12.4671502 L10.3905871,11.2631012 L9.40754424,10.6957814 L12.2044503,9.48016461 Z M21.0999683,9.48016461 L23.8968744,10.6957814 L22.9138315,11.2631012 L23.6088471,12.4671502 L22.3384809,13.2005964 L21.6433722,11.9966012 L20.7542908,12.5101529 L21.0999683,9.48016461 Z M19.1621622,2 L21.7567568,6.49396966 L19.1621622,10.9879393 L13.972973,10.9879393 L11.3783784,6.49396966 L13.972973,2 L19.1621622,2 Z" id="形状结合" fill="#333333"></path>
            </g>
            <text font-family="HelveticaNeue-Medium, Helvetica Neue" font-size="14" font-weight="400" fill="#4A4A4A">
                <tspan x="17.982" y="21">BSC</tspan>
            </text>
        </g>
    </g>
</svg>