<?xml version="1.0" encoding="UTF-8"?>
<svg width="66px" height="66px" viewBox="0 0 66 66" version="1.1" xmlns="http://www.w3.org/2000/svg" xmlns:xlink="http://www.w3.org/1999/xlink">
    <!-- Generator: Sketch 60 (88103) - https://sketch.com -->
    <title>Carrier</title>
    <desc>Created with Sketch.</desc>
    <g id="页面-1" stroke="none" stroke-width="1" fill="none" fill-rule="evenodd">
        <g id="Carrier" transform="translate(1.000000, 1.000000)">
            <g id="bg/round-FFFFFF" transform="translate(-0.000000, 0.000000)" fill="#FFFFFF" stroke="#666666">
                <rect id="Rectangle" x="0" y="0" width="64" height="64" rx="5"></rect>
            </g>
            <g id="dc-icon-创业孵化载体" transform="translate(20.000000, 28.000000)" fill-rule="nonzero">
                <rect id="矩形" fill="#000000" opacity="0" x="1" y="0" width="23" height="23"></rect>
                <path d="M1.67707503,11.55 C2.09807189,11.55 2.47398163,11.8136725 2.61732487,12.2095147 L5.07588406,18.999 L19.9228841,18.999 L22.3826751,12.2095147 C22.511684,11.8532567 22.8290718,11.6040562 23.198166,11.5577787 L23.322925,11.55 L23.6215,11.55 C23.7029376,11.55 23.7837532,11.5641819 23.8603249,11.5919103 C24.1914521,11.7118187 24.3772151,12.0551165 24.3091557,12.3902021 L24.2810147,12.4902498 L21.9228841,18.999 L22.381966,19 C22.9342508,19 23.381966,19.4477153 23.381966,20 C23.381966,20.1552451 23.3458209,20.3083582 23.2763932,20.4472136 L22.2763932,22.4472136 C22.1070012,22.7859976 21.7607381,23 21.381966,23 L3.61803399,23 C3.23926193,23 2.89299881,22.7859976 2.7236068,22.4472136 L1.7236068,20.4472136 C1.47661755,19.9532351 1.6768419,19.3525621 2.17082039,19.1055728 C2.30967583,19.0361451 2.46278889,19 2.61803399,19 L3.07588406,18.999 L0.718985282,12.4902498 C0.587085942,12.1260099 0.775435193,11.7238096 1.13967511,11.5919103 C1.21624682,11.5641819 1.29706237,11.55 1.37849999,11.55 L1.67707503,11.55 Z M10.45,0.150000003 C11.4,0.150000003 12.15,0.899999995 12.15,1.84999999 C12.15,1.92326388 12.1455394,1.99533827 12.1368704,2.0659709 L21.608643,5.91034483 C21.7418425,5.99026451 21.8182672,6.11276523 21.8454796,6.24759753 C21.9736514,6.21637131 22.1096429,6.20000001 22.25,6.20000001 C23.2,6.20000001 23.95,6.95 23.95,7.9 C23.95,8.7829861 23.3020794,9.4931934 22.447863,9.58899701 L19.401157,15.3411076 C19.7398626,15.6503223 19.95,16.0971429 19.95,16.6 C19.95,17.55 19.2,18.3 18.25,18.3 C17.4746324,18.3 16.8324935,17.800392 16.6226136,17.100206 L8.28738663,17.0993753 C8.03780946,17.7020145 7.41090337,18.15 6.7,18.15 C5.75,18.15 5.00000001,17.4 5.00000001,16.45 C5.00000001,15.9597938 5.19969705,15.5228402 5.52352481,15.2147054 L2.41322632,9.02669944 C1.60336234,8.89327004 1,8.20208334 1,7.35000001 C1,6.40000001 1.74999999,5.65 2.70000001,5.65 C3.0344538,5.65 3.34411881,5.74295789 3.60499566,5.90487429 L8.77249192,2.13182085 C8.75768756,2.04031109 8.74999999,1.94618055 8.74999999,1.84999999 C8.74999999,0.899999973 9.50000001,0.150000003 10.45,0.150000003 Z M18.25,15.9 C17.85,15.9 17.55,16.2 17.55,16.6 C17.55,17 17.85,17.3 18.25,17.3 C18.65,17.3 18.95,17 18.95,16.6 C18.95,16.2 18.65,15.9 18.25,15.9 Z M6.7,15.7 C6.29999999,15.7 6.00000001,16 6.00000001,16.4 C6.00000001,16.8 6.30000001,17.1 6.7,17.1 C7.09999998,17.1 7.39999999,16.8 7.39999999,16.4 C7.39999999,16 7.09999998,15.7 6.7,15.7 Z M10.25,12.55 C10.1064286,12.55 9.96742507,12.5328703 9.83488792,12.5005093 L7.98951769,15.3333307 C8.17414452,15.5470976 8.30558248,15.8085558 8.36479949,16.0986733 L16.6229124,16.0987981 C16.6249066,16.0921599 16.6269397,16.0855398 16.6290114,16.078938 L11.4557514,12.0567484 C11.1495388,12.3627034 10.7247423,12.55 10.25,12.55 Z M20.8780115,8.91318826 L11.9489609,10.7888747 C11.9496518,10.8091533 11.95,10.8295302 11.95,10.85 C11.95,10.9539286 11.941024,11.0554635 11.923792,11.1538848 L17.2003225,15.2555808 C17.4878986,15.0320751 17.8513393,14.9 18.25,14.9 C18.3333333,14.9 18.4151277,14.905771 18.495012,14.9169418 L21.4199636,9.38900366 C21.2061092,9.27114485 21.0214768,9.10855806 20.8780115,8.91318826 Z M3.45836955,8.87628204 L6.42016171,14.7721724 C6.5110483,14.7575769 6.60451389,14.75 6.7,14.75 C6.85257353,14.75 6.99998835,14.7693452 7.13996606,14.8057571 L8.97696413,11.9854671 C8.71046479,11.6860555 8.54999999,11.2894231 8.54999999,10.85 C8.54999999,10.7432143 8.55947632,10.6389556 8.57764785,10.5380051 L4.10696623,8.31370517 C3.94404265,8.55326658 3.7210772,8.74755875 3.45836955,8.87628204 Z M10.25,10.15 C9.84999999,10.15 9.55000001,10.45 9.55000001,10.85 C9.55000001,11.25 9.85000002,11.55 10.25,11.55 C10.65,11.55 10.95,11.25 10.95,10.85 C10.95,10.45 10.65,10.15 10.25,10.15 Z M10.9512019,3.47708759 L10.950479,9.29670343 C11.2192466,9.41596412 11.4496354,9.6024645 11.6212567,9.83581595 L20.5510054,7.96012794 C20.5503369,7.94017862 20.55,7.92013423 20.55,7.9 C20.55,7.4576923 20.7125785,7.05873886 20.9822262,6.75864894 L11.7116003,2.99818373 C11.5096192,3.2204977 11.2485156,3.38776984 10.9512019,3.47708759 Z M9.22643118,3.03867422 L4.25978706,6.66433969 C4.34912794,6.87101226 4.39890198,7.09992512 4.39998204,7.34195112 L9.03728714,9.65024831 C9.27828353,9.40660077 9.59393282,9.23699887 9.95017558,9.17550205 L9.94979398,3.47738643 C9.67040482,3.39363985 9.42295128,3.24106984 9.22643118,3.03867422 Z M22.25,7.15 C21.85,7.15 21.55,7.45000001 21.55,7.85 C21.55,8.25 21.85,8.55000001 22.25,8.55000001 C22.65,8.55000001 22.95,8.25 22.95,7.85 C23,7.49999999 22.65,7.15 22.25,7.15 Z M2.70000001,6.59999999 C2.3,6.59999999 2,6.9 2,7.30000001 C2,7.70000002 2.3,8 2.70000001,8 C3.10000002,8 3.4,7.69999999 3.4,7.30000001 C3.4,6.90000002 3.1,6.59999999 2.70000001,6.59999999 Z M10.45,1.1 C10.05,1.1 9.74999999,1.4 9.74999999,1.79999999 C9.74999999,2.19999998 10.05,2.5 10.45,2.5 C10.85,2.5 11.15,2.2 11.15,1.79999999 C11.15,1.39999998 10.85,1.1 10.45,1.1 Z" id="形状结合" fill="#333333"></path>
            </g>
            <text font-family="HelveticaNeue-Medium, Helvetica Neue" font-size="14" font-weight="400" fill="#4A4A4A">
                <tspan x="10.583" y="21">Carrier</tspan>
            </text>
        </g>
    </g>
</svg>