<?xml version="1.0" encoding="UTF-8"?>
<svg width="64px" height="64px" viewBox="0 0 64 64" version="1.1" xmlns="http://www.w3.org/2000/svg" xmlns:xlink="http://www.w3.org/1999/xlink">
    <!-- Generator: Sketch 60 (88103) - https://sketch.com -->
    <title>CC</title>
    <desc>Created with Sketch.</desc>
    <g id="CC" stroke="none" stroke-width="1" fill="none" fill-rule="evenodd">
        <g fill="#333333">
            <text font-family="HelveticaNeue, Helvetica Neue" font-size="14" font-weight="normal">
                <tspan x="22" y="21">CC</tspan>
            </text>
            <path d="M43,32 L43,34 L42.999,34 L42.999,47.999 L43,48 L43,50 L42.999,49.999 L43,50 L41,50 L40.999,49.999 L23,49.999 L23,50 L21,50 L21,32 L43,32 Z M23,47.999 L40.999,47.999 L40.999,34 L23,34 L23,36 L25,36 L25,46 L23,46 L23,47.999 Z M35.573343,34.1652943 L33.8606041,38.9767408 L37.01668,39.9011476 L30.426657,45.8347057 L32.1393959,41.0232592 L28.98332,40.0988524 L35.573343,34.1652943 Z" id="形状结合备份-2"></path>
        </g>
    </g>
</svg>