<?xml version="1.0" encoding="UTF-8"?>
<svg width="66px" height="66px" viewBox="0 0 66 66" version="1.1" xmlns="http://www.w3.org/2000/svg" xmlns:xlink="http://www.w3.org/1999/xlink">
    <!-- Generator: Sketch 60 (88103) - https://sketch.com -->
    <title>CELL</title>
    <desc>Created with Sketch.</desc>
    <g id="页面-1" stroke="none" stroke-width="1" fill="none" fill-rule="evenodd">
        <g id="CELL" transform="translate(1.000000, 1.000000)">
            <g id="bg/round-FFFFFF" transform="translate(-0.000000, 0.000000)" fill="#FFFFFF" stroke="#666666">
                <rect id="Rectangle" x="0" y="0" width="64" height="64" rx="5"></rect>
            </g>
            <g transform="translate(15.000000, 25.000000)" fill-rule="nonzero">
                <rect id="矩形" fill="#000000" opacity="0" x="0" y="0" width="34" height="34"></rect>
                <path d="M20.7201974,20.3511112 L20.8040843,20.3580238 C20.9434487,20.3808293 21.0670086,20.4606725 21.1450614,20.5783598 L21.1450614,20.5783598 L24.5426805,25.6738065 C24.6941436,25.9030789 24.6383624,26.2111565 24.4150666,26.3716414 C22.243639,27.9279099 19.6794943,28.7504273 16.9996605,28.7504273 C14.3198551,28.7504273 11.7556535,27.9279099 9.58425433,26.3716414 C9.36101547,26.2111849 9.3051773,25.9031073 9.45666894,25.6738065 L9.45666894,25.6738065 L12.8543734,20.5783598 C12.9329473,20.4607933 13.0567098,20.3810256 13.1962328,20.3580238 C13.3328399,20.3350852 13.4784404,20.369977 13.5900883,20.456751 C15.5321012,21.947135 18.4681873,21.9462527 20.4092896,20.456751 C20.5215315,20.3705774 20.6644919,20.334827 20.8040843,20.3580238 Z M17,12.557728 C18.7573915,12.557728 20.1875,13.9878364 20.1875,15.745228 C20.1875,17.5026195 18.7573915,18.932728 17,18.932728 C15.2425831,18.932728 13.8125,17.5026195 13.8125,15.745228 C13.8125,13.9878364 15.2425831,12.557728 17,12.557728 Z M11.3609157,4.56922544 C11.6060971,4.44858425 11.9062628,4.5443231 12.035812,4.78751229 L12.035812,4.78751229 L14.9229472,10.1880768 C14.9897993,10.3117063 15.0017524,10.4592135 14.9559321,10.5928893 C14.909998,10.7264228 14.8122954,10.8351393 14.6827463,10.8939089 C12.3778136,11.9357376 11.0538058,14.4072171 11.4635987,16.9045951 C11.4866475,17.0440163 11.4504939,17.1867325 11.3638471,17.2983652 C11.2776057,17.4105228 11.1487915,17.4819866 11.0079854,17.495791 L11.0079854,17.495791 L4.91254589,18.0840271 C4.89652301,18.0849662 4.88064243,18.0859908 4.86368037,18.0859908 C4.61050179,18.0859908 4.39212956,17.8985259 4.35823392,17.6413914 C3.65035273,12.2318336 6.46380547,6.97886175 11.3609157,4.56922544 Z M21.3783181,4.54124944 C21.494918,4.29208369 21.7890218,4.18331024 22.0412897,4.29208369 C27.0549714,6.44552467 30.136601,11.3295434 29.710899,16.7690409 C29.6889565,17.0351687 29.4665999,17.0232968 29.2023789,17.0232968 L29.1785011,17.0232968 L23.0592122,16.9673774 C22.9186207,16.9604617 22.7860263,17.0052575 22.6942719,16.8975655 C22.6026028,16.7899589 22.5597138,16.7031849 22.5745983,16.5626218 C22.8557814,14.0482818 21.4062372,11.6755579 19.0493939,10.7543988 C18.9177956,10.7025166 18.8131773,10.6127827 18.7602705,10.481213 C18.7084167,10.3495863 18.7124011,10.2100478 18.7722521,10.0814094 L18.7722521,10.0814094 Z" id="形状结合" fill="#333333"></path>
            </g>
            <text font-family="HelveticaNeue, Helvetica Neue" font-size="14" font-weight="normal" fill="#333333">
                <tspan x="15.385" y="21">CELL</tspan>
            </text>
        </g>
    </g>
</svg>