<?xml version="1.0" encoding="UTF-8"?>
<svg width="64px" height="64px" viewBox="0 0 64 64" version="1.1" xmlns="http://www.w3.org/2000/svg" xmlns:xlink="http://www.w3.org/1999/xlink">
    <!-- Generator: Sketch 60 (88103) - https://sketch.com -->
    <title>DP</title>
    <desc>Created with Sketch.</desc>
    <g id="DP" stroke="none" stroke-width="1" fill="none" fill-rule="evenodd">
        <g fill="#333333">
            <text font-family="HelveticaNeue, Helvetica Neue" font-size="14" font-weight="normal">
                <tspan x="21.536" y="21">DP</tspan>
            </text>
            <path d="M28.7272727,32 L28.727,34.181 L35.272,34.181 L35.2727273,32 L39.6363636,32 L39.636,34.181 L44,34.1818182 L44,51.6363636 L20,51.6363636 L20,34.1818182 L24.363,34.181 L24.3636364,32 L28.7272727,32 Z M26.5454545,47.2727273 L24.3636364,47.2727273 L24.3636364,49.4545455 L26.5454545,49.4545455 L26.5454545,47.2727273 Z M30.9090909,47.2727273 L28.7272727,47.2727273 L28.7272727,49.4545455 L30.9090909,49.4545455 L30.9090909,47.2727273 Z M35.2727273,47.2727273 L33.0909091,47.2727273 L33.0909091,49.4545455 L35.2727273,49.4545455 L35.2727273,47.2727273 Z M39.6363636,47.2727273 L37.4545455,47.2727273 L37.4545455,49.4545455 L39.6363636,49.4545455 L39.6363636,47.2727273 Z M26.5454545,42.9090909 L24.3636364,42.9090909 L24.3636364,45.0909091 L26.5454545,45.0909091 L26.5454545,42.9090909 Z M30.9090909,42.9090909 L28.7272727,42.9090909 L28.7272727,45.0909091 L30.9090909,45.0909091 L30.9090909,42.9090909 Z M35.2727273,42.9090909 L33.0909091,42.9090909 L33.0909091,45.0909091 L35.2727273,45.0909091 L35.2727273,42.9090909 Z M39.6363636,42.9090909 L37.4545455,42.9090909 L37.4545455,45.0909091 L39.6363636,45.0909091 L39.6363636,42.9090909 Z M26.5454545,38.5454545 L24.3636364,38.5454545 L24.3636364,40.7272727 L26.5454545,40.7272727 L26.5454545,38.5454545 Z M30.9090909,38.5454545 L28.7272727,38.5454545 L28.7272727,40.7272727 L30.9090909,40.7272727 L30.9090909,38.5454545 Z M35.2727273,38.5454545 L33.0909091,38.5454545 L33.0909091,40.7272727 L35.2727273,40.7272727 L35.2727273,38.5454545 Z M39.6363636,38.5454545 L37.4545455,38.5454545 L37.4545455,40.7272727 L39.6363636,40.7272727 L39.6363636,38.5454545 Z" id="形状结合备份"></path>
        </g>
    </g>
</svg>