<?xml version="1.0" encoding="UTF-8"?>
<svg width="66px" height="66px" viewBox="0 0 66 66" version="1.1" xmlns="http://www.w3.org/2000/svg" xmlns:xlink="http://www.w3.org/1999/xlink">
    <!-- Generator: Sketch 60 (88103) - https://sketch.com -->
    <title>DSC</title>
    <desc>Created with Sketch.</desc>
    <g id="页面-1" stroke="none" stroke-width="1" fill="none" fill-rule="evenodd">
        <g id="DSC" transform="translate(1.000000, 1.000000)">
            <g id="bg/round-FFFFFF" fill="#FFFFFF" stroke="#666666">
                <rect id="Rectangle" x="0" y="0" width="64" height="64" rx="5"></rect>
            </g>
            <g id="交换任务" transform="translate(15.000000, 26.000000)" fill-rule="nonzero">
                <rect id="矩形" fill="#1CA6FF" opacity="0" x="0" y="0" width="34" height="34"></rect>
                <path d="M6.57748775,22.95 L6.57748775,24.45875 L7,24.458 L7,26.583 L6.59873775,26.58375 L6.59873775,28.0925 L2.13623775,25.52125 L6.57748775,22.95 Z M27.4125,22.95 L31.875,25.52125 L27.43375,28.0925 L27.43375,26.58375 L27,26.583 L27,24.458 L27.4125,24.45875 L27.4125,22.95 Z M25,24.454 L25.2213889,24.45875 L26,24.458 L26,26.583 L25.2213889,26.58375 L25,26.58 L25,24.454 Z M11.0010105,24.3611765 L11.0007803,26.5132898 C10.658587,26.5592978 10.2997833,26.5830631 9.92138889,26.58375 L10,26.582 L10.0011898,24.4578152 C10.3559263,24.4516597 10.6880912,24.4190057 11.0010105,24.3611765 Z M9,24.458 L9,26.583 L8,26.583 L8,24.458 L9,24.458 Z M23.0008642,24.0064724 C23.3144984,24.1509841 23.6440502,24.2621063 23.9999857,24.3380385 L23.9999892,26.5003599 C23.6576194,26.4535475 23.3241981,26.3874662 23.0003519,26.3032193 L23.0008642,24.0064724 Z M13.0011378,23.5038357 L13.0010615,25.9193643 C12.6820477,26.0734337 12.3501966,26.201823 12.0013146,26.3033563 L11.9999739,24.0676713 C12.3576725,23.9192506 12.6889109,23.7303174 13.0011378,23.5038357 Z M22.0000183,8.90430754 L21.999982,11.4777245 C21.9956373,11.481661 21.991296,11.4856048 21.986958,11.4895558 L21.9696165,11.4767483 C23.8085572,12.8435925 25,15.0326581 25,17.5 C25,19.9677882 23.8081262,22.1571993 21.9686187,23.5239933 L22.0004871,23.5001834 L22.0004871,23.5001834 L22.000334,25.9741074 C21.6537052,25.8348491 21.3204996,25.6733192 21.0016573,25.4911732 L21.0010455,24.1344007 L21.0567337,24.104651 C19.9983415,24.6758161 18.7870293,25 17.5,25 C16.6065982,25 15.7496811,24.8437902 14.9550719,24.5571938 L14.9503287,24.5554812 C14.6396912,24.8415922 14.3245672,25.0998524 13.9994514,25.3286899 L13.9999515,24.1349278 L14.0319013,24.1517183 C11.6356028,22.8997657 10,20.3908906 10,17.5 C10,14.6091094 11.6356028,12.1002343 14.0319013,10.8482817 L13.9999515,10.8650722 L13.9993702,9.27747399 C14.4995105,9.57579113 14.9719172,9.91669558 15.4102801,10.2949468 C16.0737099,10.1029169 16.7748362,10 17.5,10 C18.7814003,10 19.9877443,10.3213544 21.0428379,10.8878689 L21.0010455,10.8655993 L21.0010609,9.60688068 C21.3239782,9.34435678 21.65579,9.10966155 22.0000183,8.90430754 Z M17.5,12 C14.4624339,12 12,14.4624339 12,17.5 C12,20.5375661 14.4624339,23 17.5,23 C20.5375661,23 23,20.5375661 23,17.5 C23,14.4624339 20.5375661,12 17.5,12 Z M6.56625,6.375 L6.56625,7.88375 L7,7.883 L7,10.008 L6.5875,10.00875 L6.5875,11.5175 L2.125,8.94625 L6.56625,6.375 Z M27.4125,6.375 L31.875,8.94625 L27.4125,11.5175 L27.4125,10.00875 L27,10.008 L27,7.883 L27.4125,7.88375 L27.4125,6.375 Z M12.0005525,8.36680785 C12.3418388,8.47858789 12.6757551,8.60864154 13.000871,8.75578097 L13.0002401,11.1471176 C12.6804448,10.9514492 12.3458374,10.7781046 11.9993272,10.6293885 L12.0005525,8.36680785 Z M24.0005002,8.08931391 L23.9998857,10.2906012 C23.6466011,10.4065564 23.3146019,10.5570595 23.0003268,10.7398365 L23.0004262,8.40671819 C23.3212451,8.27753088 23.653841,8.17140213 24.0005002,8.08931391 Z M10.0009264,7.93736743 C10.3385759,7.97321326 10.6722041,8.02671042 11.0006694,8.09691079 L11.0008561,10.2793571 C10.6741256,10.1894542 10.3400799,10.1208702 10.0007855,10.0752421 L10.0009264,7.93736743 Z M26,7.883 L26,10.008 L25.829176,10.00875 C25.5409281,10.0102413 25.2648262,10.0289643 24.9997873,10.0642274 L24.9993612,7.92410615 C25.1670959,7.90761998 25.338074,7.89613574 25.5125006,7.88974158 L25.829176,7.88375 L26,7.883 Z M9,7.883 L9,10.008 L8,10.008 L8,7.883 L9,7.883 Z" id="形状结合" fill="#4A4A4A"></path>
            </g>
            <text font-family="HelveticaNeue-Medium, Helvetica Neue" font-size="14" font-weight="400" fill="#4A4A4A">
                <tspan x="17.856" y="21">DSC</tspan>
            </text>
        </g>
    </g>
</svg>