<?xml version="1.0" encoding="UTF-8"?>
<svg width="64px" height="64px" viewBox="0 0 64 64" version="1.1" xmlns="http://www.w3.org/2000/svg" xmlns:xlink="http://www.w3.org/1999/xlink">
    <!-- Generator: Sketch 60 (88103) - https://sketch.com -->
    <title>F_CLosure</title>
    <desc>Created with Sketch.</desc>
    <g id="F_CLosure" stroke="none" stroke-width="1" fill="none" fill-rule="evenodd">
        <g id="ODB">
            <g id="round-bg" opacity="0" fill="#FFFFFF" stroke="#666666">
                <rect id="Rectangle" x="0" y="0" width="64" height="64" rx="5"></rect>
            </g>
            <text id="F_CLosure" font-family="HelveticaNeue, Helvetica Neue" font-size="12" font-weight="normal" fill="#333333">
                <tspan x="3.496" y="21">F_CLosure</tspan>
            </text>
            <path d="M33.5714286,32 L33.571,38.285 L34.7142857,38.2857143 C35.8188552,38.2857143 36.7142857,39.1811448 36.7142857,40.2857143 L36.714,41.428 L43,41.4285714 L43,44.5714286 L36.714,44.571 L36.7142857,45.7142857 C36.7142857,46.8188552 35.8188552,47.7142857 34.7142857,47.7142857 L33.571,47.714 L33.5714286,54 L30.4285714,54 L30.428,47.714 L29.2857143,47.7142857 C28.1811448,47.7142857 27.2857143,46.8188552 27.2857143,45.7142857 L27.285,44.571 L21,44.5714286 L21,41.4285714 L27.285,41.428 L27.2857143,40.2857143 C27.2857143,39.1811448 28.1811448,38.2857143 29.2857143,38.2857143 L30.428,38.285 L30.4285714,32 L33.5714286,32 Z M32,39.8571429 C30.2642479,39.8571429 28.8571429,41.2642479 28.8571429,43 C28.8571429,44.7357521 30.2642479,46.1428571 32,46.1428571 C33.7357521,46.1428571 35.1428571,44.7357521 35.1428571,43 C35.1428571,41.2642479 33.7357521,39.8571429 32,39.8571429 Z" id="形状结合备份-2" fill="#333333"></path>
        </g>
    </g>
</svg>