<?xml version="1.0" encoding="UTF-8"?>
<svg width="22px" height="22px" viewBox="0 0 22 22" version="1.1" xmlns="http://www.w3.org/2000/svg" xmlns:xlink="http://www.w3.org/1999/xlink">
    <title>ODB-墙上</title>
    <g id="页面-1" stroke="none" stroke-width="1" fill="none" fill-rule="evenodd">
        <g id="图标库" transform="translate(-134.000000, -57.000000)" fill-rule="nonzero">
            <g id="ODB-墙上" transform="translate(134.000000, 57.000000)">
                <g id="编组" fill="#D1D7DC">
                    <path d="M0,12.0694349 L7.33333333,12.0694349 L7.33333333,16.5 L0,16.5 L0,12.0694349 Z M12.8333333,5.5 L0,5.60690625 L0,9.9305651 L12.8333333,9.9305651 L12.8333333,5.5 Z M22,3.66666667 L22,1.0694349 C22,0.534731771 21.4652682,0 20.9305651,0 L8.5555651,0 L8.5555651,3.66666667 L22,3.66666667 Z M0,18.3333333 L0,20.9305651 C0,21.4652682 0.534731771,22 1.0694349,22 L12.8333333,22 L12.8333333,18.3333333 L0,18.3333333 Z M7.33333333,0 L0.748630208,0 C0.213898438,0 0,0.534731771 0,1.0694349 L0,3.66666667 L7.33333333,3.66666667 L7.33333333,0 Z M14.7736589,22 L21.0375573,22 C21.5722604,22 22,21.5722604 22,21.1444635 L22,18.3333333 L14.6666667,18.3333333 L14.7736589,22 Z M14.7736589,5.60690625 L14.6666667,9.9305651 L22,9.9305651 L22,5.60690625 L14.7736589,5.60690625 Z M8.5555651,12.0694349 L22,12.0694349 L22,16.5 L8.5555651,16.5 L8.5555651,12.0694349 Z" id="形状"></path>
                </g>
                <g id="交换机组" transform="translate(3.000000, 3.000000)">
                    <rect id="矩形" fill="#000000" opacity="0" x="0" y="0" width="16" height="16"></rect>
                    <path d="M15.427,3 C15.744,3 16,3.224 16,3.5 L16,12.499 C16,12.776 15.744,13 15.428,13 L0.571,13 C0.257,13 0,12.776 0,12.499 L0,3.5 C0,3.225 0.256,3 0.571,3 L15.427,3 Z M4,4 L2,4 L2,12 L4,12 L4,9 L14,9 L14,7 L4,7 L4,4 Z" id="形状" fill="#697386"></path>
                </g>
            </g>
        </g>
    </g>
</svg>