<?xml version="1.0" encoding="UTF-8"?>
<svg width="22px" height="22px" viewBox="0 0 22 22" version="1.1" xmlns="http://www.w3.org/2000/svg" xmlns:xlink="http://www.w3.org/1999/xlink">
    <title>ODF-悬挂</title>
    <g id="页面-1" stroke="none" stroke-width="1" fill="none" fill-rule="evenodd">
        <g id="图标库" transform="translate(-188.000000, -203.000000)" fill="#697386">
            <g id="ODF-悬挂" transform="translate(188.000000, 203.000000)">
                <path d="M18.427,6 C18.744,6 19,6.224 19,6.5 L19,21.499 C19,21.776 18.744,22 18.428,22 L3.571,22 C3.257,22 3,21.776 3,21.499 L3,6.5 C3,6.225 3.256,6 3.571,6 L18.427,6 Z M8,19 L4,19 L4,21 L8,21 L8,19 Z M13,19 L9,19 L9,21 L13,21 L13,19 Z M18,19 L14,19 L14,21 L18,21 L18,19 Z M8,16 L4,16 L4,18 L8,18 L8,16 Z M13,16 L9,16 L9,18 L13,18 L13,16 Z M18,16 L14,16 L14,18 L18,18 L18,16 Z M8,13 L4,13 L4,15 L8,15 L8,13 Z M13,13 L9,13 L9,15 L13,15 L13,13 Z M18,13 L14,13 L14,15 L18,15 L18,13 Z M8,7 L4,7 L4,11 L8,11 L8,7 Z M13,7 L9,7 L9,11 L13,11 L13,7 Z M18,7 L14,7 L14,11 L18,11 L18,7 Z" id="形状" fill-rule="nonzero"></path>
                <path d="M7,0 C7.55228475,-1.01453063e-16 8,0.44771525 8,1 L8,6 C8,6.55228475 7.55228475,7 7,7 C6.44771525,7 6,6.55228475 6,6 L6,2 L1,2 C0.44771525,2 6.76353751e-17,1.55228475 0,1 C-6.76353751e-17,0.44771525 0.44771525,1.01453063e-16 1,0 L7,0 L7,0 Z" id="形状结合"></path>
                <path d="M21,0 C21.5522847,-1.01453063e-16 22,0.44771525 22,1 L22,6 C22,6.55228475 21.5522847,7 21,7 C20.4477153,7 20,6.55228475 20,6 L20,2 L15,2 C14.4477153,2 14,1.55228475 14,1 C14,0.44771525 14.4477153,1.01453063e-16 15,0 L21,0 L21,0 Z" id="形状结合备份" transform="translate(18.000000, 3.500000) scale(-1, 1) translate(-18.000000, -3.500000) "></path>
            </g>
        </g>
    </g>
</svg>