<?xml version="1.0" encoding="UTF-8"?>
<svg width="22px" height="22px" viewBox="0 0 22 22" version="1.1" xmlns="http://www.w3.org/2000/svg" xmlns:xlink="http://www.w3.org/1999/xlink">
    <title>ODB-地面</title>
    <g id="页面-1" stroke="none" stroke-width="1" fill="none" fill-rule="evenodd">
        <g id="图标库" transform="translate(-26.000000, -57.000000)">
            <g id="ODB-地面" transform="translate(26.000000, 57.000000)">
                <rect id="矩形" fill="#697386" x="0" y="17" width="22" height="5" rx="1"></rect>
                <g id="交换机组" transform="translate(3.000000, 0.000000)" fill-rule="nonzero">
                    <rect id="矩形" fill="#000000" opacity="0" x="0" y="0" width="16" height="16"></rect>
                    <path d="M15.427,3 C15.744,3 16,3.224 16,3.5 L16,12.499 C16,12.776 15.744,13 15.428,13 L0.571,13 C0.257,13 0,12.776 0,12.499 L0,3.5 C0,3.225 0.256,3 0.571,3 L15.427,3 Z M4,4 L2,4 L2,12 L4,12 L4,9 L14,9 L14,7 L4,7 L4,4 Z" id="形状" fill="#697386"></path>
                </g>
            </g>
        </g>
    </g>
</svg>