<?xml version="1.0" encoding="UTF-8"?>
<svg width="22px" height="22px" viewBox="0 0 22 22" version="1.1" xmlns="http://www.w3.org/2000/svg" xmlns:xlink="http://www.w3.org/1999/xlink">
    <title>ODF-墙上</title>
    <g id="页面-1" stroke="none" stroke-width="1" fill="none" fill-rule="evenodd">
        <g id="图标库" transform="translate(-134.000000, -203.000000)" fill-rule="nonzero">
            <g id="ODF-墙上" transform="translate(134.000000, 203.000000)">
                <g id="编组" fill="#D2D8DD">
                    <path d="M0,12.0694349 L7.33333333,12.0694349 L7.33333333,16.5 L0,16.5 L0,12.0694349 Z M12.8333333,5.5 L0,5.60690625 L0,9.9305651 L12.8333333,9.9305651 L12.8333333,5.5 Z M22,3.66666667 L22,1.0694349 C22,0.534731771 21.4652682,0 20.9305651,0 L8.5555651,0 L8.5555651,3.66666667 L22,3.66666667 Z M0,18.3333333 L0,20.9305651 C0,21.4652682 0.534731771,22 1.0694349,22 L12.8333333,22 L12.8333333,18.3333333 L0,18.3333333 Z M7.33333333,0 L0.748630208,0 C0.213898438,0 0,0.534731771 0,1.0694349 L0,3.66666667 L7.33333333,3.66666667 L7.33333333,0 Z M14.7736589,22 L21.0375573,22 C21.5722604,22 22,21.5722604 22,21.1444635 L22,18.3333333 L14.6666667,18.3333333 L14.7736589,22 Z M14.7736589,5.60690625 L14.6666667,9.9305651 L22,9.9305651 L22,5.60690625 L14.7736589,5.60690625 Z M8.5555651,12.0694349 L22,12.0694349 L22,16.5 L8.5555651,16.5 L8.5555651,12.0694349 Z" id="形状"></path>
                </g>
                <path d="M18.427,3 C18.744,3 19,3.224 19,3.5 L19,18.499 C19,18.776 18.744,19 18.428,19 L3.571,19 C3.257,19 3,18.776 3,18.499 L3,3.5 C3,3.225 3.256,3 3.571,3 L18.427,3 Z M8,16 L4,16 L4,18 L8,18 L8,16 Z M13,16 L9,16 L9,18 L13,18 L13,16 Z M18,16 L14,16 L14,18 L18,18 L18,16 Z M8,13 L4,13 L4,15 L8,15 L8,13 Z M13,13 L9,13 L9,15 L13,15 L13,13 Z M18,13 L14,13 L14,15 L18,15 L18,13 Z M8,10 L4,10 L4,12 L8,12 L8,10 Z M13,10 L9,10 L9,12 L13,12 L13,10 Z M18,10 L14,10 L14,12 L18,12 L18,10 Z M8,4 L4,4 L4,8 L8,8 L8,4 Z M13,4 L9,4 L9,8 L13,8 L13,4 Z M18,4 L14,4 L14,8 L18,8 L18,4 Z" id="形状" fill="#697386"></path>
            </g>
        </g>
    </g>
</svg>