<?xml version="1.0" encoding="UTF-8"?>
<svg width="22px" height="22px" viewBox="0 0 22 22" version="1.1" xmlns="http://www.w3.org/2000/svg" xmlns:xlink="http://www.w3.org/1999/xlink">
    <title>ODB-悬挂</title>
    <g id="页面-1" stroke="none" stroke-width="1" fill="none" fill-rule="evenodd">
        <g id="图标库" transform="translate(-188.000000, -57.000000)">
            <g id="ODB-悬挂" transform="translate(188.000000, 57.000000)">
                <g id="交换机组" transform="translate(3.000000, 6.000000)" fill-rule="nonzero">
                    <rect id="矩形" fill="#000000" opacity="0" x="0" y="0" width="16" height="16"></rect>
                    <path d="M15.427,3 C15.744,3 16,3.224 16,3.5 L16,12.499 C16,12.776 15.744,13 15.428,13 L0.571,13 C0.257,13 0,12.776 0,12.499 L0,3.5 C0,3.225 0.256,3 0.571,3 L15.427,3 Z M4,4 L2,4 L2,12 L4,12 L4,9 L14,9 L14,7 L4,7 L4,4 Z" id="形状" fill="#697386"></path>
                </g>
                <path d="M7,0 C7.55228475,-1.01453063e-16 8,0.44771525 8,1 L8,9 C8,9.55228475 7.55228475,10 7,10 C6.44771525,10 6,9.55228475 6,9 L6,2 L1,2 C0.44771525,2 6.76353751e-17,1.55228475 0,1 C-6.76353751e-17,0.44771525 0.44771525,1.01453063e-16 1,0 L7,0 L7,0 Z" id="形状结合" fill="#697386"></path>
                <path d="M21,0 C21.5522847,-1.01453063e-16 22,0.44771525 22,1 L22,9 C22,9.55228475 21.5522847,10 21,10 C20.4477153,10 20,9.55228475 20,9 L20,2 L15,2 C14.4477153,2 14,1.55228475 14,1 C14,0.44771525 14.4477153,1.01453063e-16 15,0 L21,0 L21,0 Z" id="形状结合备份" fill="#697386" transform="translate(18.000000, 5.000000) scale(-1, 1) translate(-18.000000, -5.000000) "></path>
            </g>
        </g>
    </g>
</svg>