<?xml version="1.0" encoding="UTF-8"?>
<svg width="22px" height="22px" viewBox="0 0 22 22" version="1.1" xmlns="http://www.w3.org/2000/svg" xmlns:xlink="http://www.w3.org/1999/xlink">
    <title>OLT_墙上</title>
    <g id="页面-1" stroke="none" stroke-width="1" fill="none" fill-rule="evenodd">
        <g id="图标库" transform="translate(-134.000000, -18.000000)" fill-rule="nonzero">
            <g id="OLT_墙上" transform="translate(134.000000, 18.000000)">
                <g id="编组" fill="#D1D7DC">
                    <path d="M0,12.0694349 L7.33333333,12.0694349 L7.33333333,16.5 L0,16.5 L0,12.0694349 Z M12.8333333,5.5 L0,5.60690625 L0,9.9305651 L12.8333333,9.9305651 L12.8333333,5.5 Z M22,3.66666667 L22,1.0694349 C22,0.534731771 21.4652682,0 20.9305651,0 L8.5555651,0 L8.5555651,3.66666667 L22,3.66666667 Z M0,18.3333333 L0,20.9305651 C0,21.4652682 0.534731771,22 1.0694349,22 L12.8333333,22 L12.8333333,18.3333333 L0,18.3333333 Z M7.33333333,0 L0.748630208,0 C0.213898438,0 0,0.534731771 0,1.0694349 L0,3.66666667 L7.33333333,3.66666667 L7.33333333,0 Z M14.7736589,22 L21.0375573,22 C21.5722604,22 22,21.5722604 22,21.1444635 L22,18.3333333 L14.6666667,18.3333333 L14.7736589,22 Z M14.7736589,5.60690625 L14.6666667,9.9305651 L22,9.9305651 L22,5.60690625 L14.7736589,5.60690625 Z M8.5555651,12.0694349 L22,12.0694349 L22,16.5 L8.5555651,16.5 L8.5555651,12.0694349 Z" id="形状"></path>
                </g>
                <g id="交换机组" transform="translate(3.000000, 3.000000)">
                    <rect id="矩形" fill="#000000" opacity="0" x="0" y="0" width="16" height="16"></rect>
                    <path d="M15.428,15.441 L0.571,15.441 C0.257,15.441 0,15.217 0,14.939 L0,11.941 C0,11.666 0.256,11.441 0.571,11.441 L15.427,11.441 C15.743,11.441 15.9990029,11.664 15.9990029,11.941 L15.9990029,14.939 C16,15.217 15.744,15.441 15.428,15.441 Z M2.286,12.275 L0.953,12.275 L0.953,13.441 L2.286,13.441 L2.286,12.275 Z M10.096,12.275 L8.763,12.275 L8.763,14.607 L10.096,14.607 L10.096,12.275 L10.096,12.275 Z M12.57,12.275 L11.238,12.275 L11.238,14.607 L12.57,14.607 L12.57,12.275 L12.57,12.275 Z M15.047,12.275 L13.714,12.275 L13.714,14.607 L15.047,14.607 L15.047,12.275 L15.047,12.275 Z M15.428,10.229 L0.571,10.229 C0.257,10.229 0,10.004 0,9.727 L0,6.728 C0,6.453 0.256,6.228 0.571,6.228 L15.427,6.228 C15.743,6.228 15.9990029,6.452 15.9990029,6.728 L15.9990029,9.727 C16,10.004 15.744,10.229 15.428,10.229 L15.428,10.229 Z M2.286,7.061 L0.953,7.061 L0.953,8.228 L2.286,8.228 L2.286,7.061 Z M10.096,7.061 L8.763,7.061 L8.763,9.394 L10.096,9.394 L10.096,7.061 Z M12.57,7.061 L11.238,7.061 L11.238,9.394 L12.57,9.394 L12.57,7.061 Z M15.047,7.061 L13.714,7.061 L13.714,9.394 L15.047,9.394 L15.047,7.061 Z M15.428,5 L0.571,5 C0.257,5 0,4.776 0,4.499 L0,1.5 C0,1.225 0.256,1 0.571,1 L15.427,1 C15.744,1 16,1.224 16,1.5 L16,4.499 C16,4.776 15.744,5 15.428,5 L15.428,5 Z M2.286,1.833 L0.953,1.833 L0.953,3 L2.286,3 L2.286,1.833 Z M10.096,1.833 L8.763,1.833 L8.763,4.166 L10.096,4.166 L10.096,1.833 Z M12.57,1.833 L11.238,1.833 L11.238,4.166 L12.57,4.166 L12.57,1.833 Z M15.047,1.833 L13.714,1.833 L13.714,4.166 L15.047,4.166 L15.047,1.833 Z" id="形状" fill="#697386"></path>
                </g>
            </g>
        </g>
    </g>
</svg>