<?xml version="1.0" encoding="UTF-8"?>
<svg width="22px" height="22px" viewBox="0 0 22 22" version="1.1" xmlns="http://www.w3.org/2000/svg" xmlns:xlink="http://www.w3.org/1999/xlink">
    <title>Fiber-悬挂</title>
    <g id="页面-1" stroke="none" stroke-width="1" fill="none" fill-rule="evenodd">
        <g id="图标库" transform="translate(-188.000000, -159.000000)">
            <g id="Fiber-悬挂" transform="translate(188.000000, 159.000000)">
                <g id="交换机组" transform="translate(3.000000, 6.000000)">
                    <rect id="矩形" fill="#000000" fill-rule="nonzero" opacity="0" x="0" y="0" width="16" height="16"></rect>
                    <rect id="矩形" fill="#697386" x="0" y="7" width="4" height="2"></rect>
                    <rect id="矩形备份-2" fill="#697386" x="5" y="7" width="3" height="2"></rect>
                    <rect id="矩形备份-4" fill="#697386" x="9" y="7" width="3" height="2"></rect>
                    <rect id="矩形备份-5" fill="#697386" x="13" y="7" width="4" height="2"></rect>
                </g>
                <path d="M7,0 C7.55228475,-1.01453063e-16 8,0.44771525 8,1 L8,13 C8,13.5522847 7.55228475,14 7,14 C6.44771525,14 6,13.5522847 6,13 L6,2 L1,2 C0.44771525,2 6.76353751e-17,1.55228475 0,1 C-6.76353751e-17,0.44771525 0.44771525,1.01453063e-16 1,0 L7,0 L7,0 Z" id="形状结合" fill="#697386"></path>
                <path d="M21,0 C21.5522847,-1.01453063e-16 22,0.44771525 22,1 L22,13 C22,13.5522847 21.5522847,14 21,14 C20.4477153,14 20,13.5522847 20,13 L20,2 L15,2 C14.4477153,2 14,1.55228475 14,1 C14,0.44771525 14.4477153,1.01453063e-16 15,0 L21,0 L21,0 Z" id="形状结合备份" fill="#697386" transform="translate(18.000000, 7.000000) scale(-1, 1) translate(-18.000000, -7.000000) "></path>
            </g>
        </g>
    </g>
</svg>