<?xml version="1.0" encoding="UTF-8"?>
<svg width="22px" height="22px" viewBox="0 0 22 22" version="1.1" xmlns="http://www.w3.org/2000/svg" xmlns:xlink="http://www.w3.org/1999/xlink">
    <title>OCC-悬挂</title>
    <g id="页面-1" stroke="none" stroke-width="1" fill="none" fill-rule="evenodd">
        <g id="图标库" transform="translate(-188.000000, -108.000000)">
            <g id="OCC-悬挂" transform="translate(188.000000, 108.000000)">
                <g id="交换机组" transform="translate(3.000000, 6.000000)" fill-rule="nonzero">
                    <rect id="矩形" fill="#000000" opacity="0" x="0" y="0" width="16" height="16"></rect>
                    <path d="M15.427,0 C15.744,0 16,0.224 16,0.5 L16,15.499 C16,15.776 15.744,16 15.428,16 L0.571,16 C0.257,16 0,15.776 0,15.499 L0,0.5 C0,0.225 0.256,0 0.571,0 L15.427,0 Z M1,1 L1,15 L8,8 L1,1 Z M15,1 L8,8 L15,15 L15,1 Z" id="形状" fill="#697386"></path>
                </g>
                <path d="M7,0 C7.55228475,-1.01453063e-16 8,0.44771525 8,1 L8,8 C8,8.55228475 7.55228475,9 7,9 C6.44771525,9 6,8.55228475 6,8 L6,2 L1,2 C0.44771525,2 6.76353751e-17,1.55228475 0,1 C-6.76353751e-17,0.44771525 0.44771525,1.01453063e-16 1,0 L7,0 L7,0 Z" id="形状结合" fill="#697386"></path>
                <path d="M21,0 C21.5522847,-1.01453063e-16 22,0.44771525 22,1 L22,8 C22,8.55228475 21.5522847,9 21,9 C20.4477153,9 20,8.55228475 20,8 L20,2 L15,2 C14.4477153,2 14,1.55228475 14,1 C14,0.44771525 14.4477153,1.01453063e-16 15,0 L21,0 L21,0 Z" id="形状结合备份" fill="#697386" transform="translate(18.000000, 4.500000) scale(-1, 1) translate(-18.000000, -4.500000) "></path>
            </g>
        </g>
    </g>
</svg>