<?xml version="1.0" encoding="UTF-8"?>
<svg width="22px" height="22px" viewBox="0 0 22 22" version="1.1" xmlns="http://www.w3.org/2000/svg" xmlns:xlink="http://www.w3.org/1999/xlink">
    <title>ODF-地面</title>
    <g id="页面-1" stroke="none" stroke-width="1" fill="none" fill-rule="evenodd">
        <g id="图标库" transform="translate(-26.000000, -203.000000)">
            <g id="ODF-地面" transform="translate(26.000000, 203.000000)">
                <rect id="矩形" fill="#000000" fill-rule="nonzero" opacity="0" x="3" y="0" width="16" height="16"></rect>
                <path d="M18.427,0 C18.744,0 19,0.224 19,0.5 L19,15.499 C19,15.776 18.744,16 18.428,16 L3.571,16 C3.257,16 3,15.776 3,15.499 L3,0.5 C3,0.225 3.256,0 3.571,0 L18.427,0 Z M8,13 L4,13 L4,15 L8,15 L8,13 Z M13,13 L9,13 L9,15 L13,15 L13,13 Z M18,13 L14,13 L14,15 L18,15 L18,13 Z M8,10 L4,10 L4,12 L8,12 L8,10 Z M13,10 L9,10 L9,12 L13,12 L13,10 Z M18,10 L14,10 L14,12 L18,12 L18,10 Z M8,7 L4,7 L4,9 L8,9 L8,7 Z M13,7 L9,7 L9,9 L13,9 L13,7 Z M18,7 L14,7 L14,9 L18,9 L18,7 Z M8,1 L4,1 L4,5 L8,5 L8,1 Z M13,1 L9,1 L9,5 L13,5 L13,1 Z M18,1 L14,1 L14,5 L18,5 L18,1 Z" id="形状" fill="#697386" fill-rule="nonzero"></path>
                <rect id="矩形" fill="#697386" x="0" y="17" width="22" height="5" rx="1"></rect>
            </g>
        </g>
    </g>
</svg>