<?xml version="1.0" encoding="UTF-8"?>
<svg width="22px" height="22px" viewBox="0 0 22 22" version="1.1" xmlns="http://www.w3.org/2000/svg" xmlns:xlink="http://www.w3.org/1999/xlink">
    <title>ODF-地下</title>
    <g id="页面-1" stroke="none" stroke-width="1" fill="none" fill-rule="evenodd">
        <g id="图标库" transform="translate(-80.000000, -203.000000)">
            <g id="ODF-地下" transform="translate(80.000000, 203.000000)">
                <rect id="矩形" fill="#000000" fill-rule="nonzero" opacity="0" x="3" y="6" width="16" height="16"></rect>
                <path d="M18.427,6 C18.744,6 19,6.224 19,6.5 L19,21.499 C19,21.776 18.744,22 18.428,22 L3.571,22 C3.257,22 3,21.776 3,21.499 L3,6.5 C3,6.225 3.256,6 3.571,6 L18.427,6 Z M8,19 L4,19 L4,21 L8,21 L8,19 Z M13,19 L9,19 L9,21 L13,21 L13,19 Z M18,19 L14,19 L14,21 L18,21 L18,19 Z M8,16 L4,16 L4,18 L8,18 L8,16 Z M13,16 L9,16 L9,18 L13,18 L13,16 Z M18,16 L14,16 L14,18 L18,18 L18,16 Z M8,13 L4,13 L4,15 L8,15 L8,13 Z M13,13 L9,13 L9,15 L13,15 L13,13 Z M18,13 L14,13 L14,15 L18,15 L18,13 Z M8,7 L4,7 L4,11 L8,11 L8,7 Z M13,7 L9,7 L9,11 L13,11 L13,7 Z M18,7 L14,7 L14,11 L18,11 L18,7 Z" id="形状" fill="#697386" fill-rule="nonzero"></path>
                <rect id="矩形" fill="#697386" x="0" y="0" width="22" height="5" rx="1"></rect>
            </g>
        </g>
    </g>
</svg>