<?xml version="1.0" encoding="UTF-8"?>
<svg width="22px" height="22px" viewBox="0 0 22 22" version="1.1" xmlns="http://www.w3.org/2000/svg" xmlns:xlink="http://www.w3.org/1999/xlink">
    <title>OLT-悬挂</title>
    <g id="页面-1" stroke="none" stroke-width="1" fill="none" fill-rule="evenodd">
        <g id="图标库" transform="translate(-188.000000, -18.000000)" fill="#697386">
            <g id="OLT-悬挂" transform="translate(188.000000, 18.000000)">
                <g id="交换机组" transform="translate(3.000000, 6.000000)" fill-rule="nonzero">
                    <rect id="矩形" opacity="0" x="0" y="0" width="16" height="16"></rect>
                    <path d="M15.428,15.441 L0.571,15.441 C0.257,15.441 0,15.217 0,14.939 L0,11.941 C0,11.666 0.256,11.441 0.571,11.441 L15.427,11.441 C15.743,11.441 15.9990029,11.664 15.9990029,11.941 L15.9990029,14.939 C16,15.217 15.744,15.441 15.428,15.441 Z M2.286,12.275 L0.953,12.275 L0.953,13.441 L2.286,13.441 L2.286,12.275 Z M10.096,12.275 L8.763,12.275 L8.763,14.607 L10.096,14.607 L10.096,12.275 L10.096,12.275 Z M12.57,12.275 L11.238,12.275 L11.238,14.607 L12.57,14.607 L12.57,12.275 L12.57,12.275 Z M15.047,12.275 L13.714,12.275 L13.714,14.607 L15.047,14.607 L15.047,12.275 L15.047,12.275 Z M15.428,10.229 L0.571,10.229 C0.257,10.229 0,10.004 0,9.727 L0,6.728 C0,6.453 0.256,6.228 0.571,6.228 L15.427,6.228 C15.743,6.228 15.9990029,6.452 15.9990029,6.728 L15.9990029,9.727 C16,10.004 15.744,10.229 15.428,10.229 L15.428,10.229 Z M2.286,7.061 L0.953,7.061 L0.953,8.228 L2.286,8.228 L2.286,7.061 Z M10.096,7.061 L8.763,7.061 L8.763,9.394 L10.096,9.394 L10.096,7.061 Z M12.57,7.061 L11.238,7.061 L11.238,9.394 L12.57,9.394 L12.57,7.061 Z M15.047,7.061 L13.714,7.061 L13.714,9.394 L15.047,9.394 L15.047,7.061 Z M15.428,5 L0.571,5 C0.257,5 0,4.776 0,4.499 L0,1.5 C0,1.225 0.256,1 0.571,1 L15.427,1 C15.744,1 16,1.224 16,1.5 L16,4.499 C16,4.776 15.744,5 15.428,5 L15.428,5 Z M2.286,1.833 L0.953,1.833 L0.953,3 L2.286,3 L2.286,1.833 Z M10.096,1.833 L8.763,1.833 L8.763,4.166 L10.096,4.166 L10.096,1.833 Z M12.57,1.833 L11.238,1.833 L11.238,4.166 L12.57,4.166 L12.57,1.833 Z M15.047,1.833 L13.714,1.833 L13.714,4.166 L15.047,4.166 L15.047,1.833 Z" id="形状"></path>
                </g>
                <path d="M7,0 C7.55228475,-1.01453063e-16 8,0.44771525 8,1 L8,7 C8,7.55228475 7.55228475,8 7,8 C6.44771525,8 6,7.55228475 6,7 L6,2 L1,2 C0.44771525,2 6.76353751e-17,1.55228475 0,1 C-6.76353751e-17,0.44771525 0.44771525,1.01453063e-16 1,0 L7,0 L7,0 Z" id="形状结合"></path>
                <path d="M21,0 C21.5522847,-1.01453063e-16 22,0.44771525 22,1 L22,7 C22,7.55228475 21.5522847,8 21,8 C20.4477153,8 20,7.55228475 20,7 L20,2 L15,2 C14.4477153,2 14,1.55228475 14,1 C14,0.44771525 14.4477153,1.01453063e-16 15,0 L21,0 L21,0 Z" id="形状结合备份" transform="translate(18.000000, 4.000000) scale(-1, 1) translate(-18.000000, -4.000000) "></path>
            </g>
        </g>
    </g>
</svg>