<?xml version="1.0" encoding="UTF-8"?>
<svg width="22px" height="22px" viewBox="0 0 22 22" version="1.1" xmlns="http://www.w3.org/2000/svg" xmlns:xlink="http://www.w3.org/1999/xlink">
    <title>OCC-地面</title>
    <g id="页面-1" stroke="none" stroke-width="1" fill="none" fill-rule="evenodd">
        <g id="图标库" transform="translate(-26.000000, -108.000000)">
            <g id="OCC-地面" transform="translate(26.000000, 108.000000)">
                <rect id="矩形" fill="#697386" x="0" y="17" width="22" height="5" rx="1"></rect>
                <g id="交换机组" transform="translate(3.000000, 0.000000)" fill-rule="nonzero">
                    <rect id="矩形" fill="#000000" opacity="0" x="0" y="0" width="16" height="16"></rect>
                    <path d="M15.427,0 C15.744,0 16,0.224 16,0.5 L16,15.499 C16,15.776 15.744,16 15.428,16 L0.571,16 C0.257,16 0,15.776 0,15.499 L0,0.5 C0,0.225 0.256,0 0.571,0 L15.427,0 Z M1,1 L1,15 L8,8 L1,1 Z M15,1 L8,8 L15,15 L15,1 Z" id="形状" fill="#697386"></path>
                </g>
            </g>
        </g>
    </g>
</svg>