<?xml version="1.0" encoding="UTF-8"?>
<svg width="64px" height="64px" viewBox="0 0 64 64" version="1.1" xmlns="http://www.w3.org/2000/svg" xmlns:xlink="http://www.w3.org/1999/xlink">
    <!-- Generator: Sketch 60 (88103) - https://sketch.com -->
    <title>MDF</title>
    <desc>Created with Sketch.</desc>
    <g id="MDF" stroke="none" stroke-width="1" fill="none" fill-rule="evenodd">
        <g>
            <g id="round-bg" opacity="0" fill="#FFFFFF" stroke="#666666">
                <rect id="Rectangle" x="0" y="0" width="64" height="64" rx="5"></rect>
            </g>
            <text font-family="HelveticaNeue, Helvetica Neue" font-size="14" font-weight="normal" fill="#333333">
                <tspan x="17.457" y="21">MDF</tspan>
            </text>
            <path d="M45,32 L45,51.6363636 L21,51.6363636 L21,32 L45,32 Z M31.909,34.181 L25.363,34.181 L25.3636364,36.3636364 L23.1818182,36.3636364 L23.181,49.454 L42.818,49.454 L42.8181818,36.3636364 L40.6363636,36.3636364 L40.6363636,38.5454545 L38.4545455,38.5454545 L38.4545455,36.3636364 L40.6363636,36.3636364 L40.636,34.181 L34.09,34.181 L34.0909091,36.3636364 L31.9090909,36.3636364 L31.909,34.181 Z M38.4545455,45.0909091 L38.4545455,47.2727273 L36.2727273,47.2727273 L36.2727273,45.0909091 L38.4545455,45.0909091 Z M29.7272727,45.0909091 L29.7272727,47.2727273 L27.5454545,47.2727273 L27.5454545,45.0909091 L29.7272727,45.0909091 Z M27.5454545,40.7272727 L27.5454545,45.0909091 L25.3636364,45.0909091 L25.3636364,40.7272727 L27.5454545,40.7272727 Z M31.9090909,40.7272727 L31.9090909,45.0909091 L29.7272727,45.0909091 L29.7272727,40.7272727 L31.9090909,40.7272727 Z M36.2727273,40.7272727 L36.2727273,45.0909091 L34.0909091,45.0909091 L34.0909091,40.7272727 L36.2727273,40.7272727 Z M40.6363636,40.7272727 L40.6363636,45.0909091 L38.4545455,45.0909091 L38.4545455,40.7272727 L40.6363636,40.7272727 Z M38.4545455,38.5454545 L38.4545455,40.7272727 L36.2727273,40.7272727 L36.2727273,38.5454545 L38.4545455,38.5454545 Z M29.7272727,38.5454545 L29.7272727,40.7272727 L27.5454545,40.7272727 L27.5454545,38.5454545 L29.7272727,38.5454545 Z M36.2727273,36.3636364 L36.2727273,38.5454545 L34.0909091,38.5454545 L34.0909091,36.3636364 L36.2727273,36.3636364 Z M31.9090909,36.3636364 L31.9090909,38.5454545 L29.7272727,38.5454545 L29.7272727,36.3636364 L31.9090909,36.3636364 Z M27.5454545,36.3636364 L27.5454545,38.5454545 L25.3636364,38.5454545 L25.3636364,36.3636364 L27.5454545,36.3636364 Z" id="形状结合备份-2" fill="#333333"></path>
        </g>
    </g>
</svg>