<?xml version="1.0" encoding="UTF-8"?>
<svg width="66px" height="66px" viewBox="0 0 66 66" version="1.1" xmlns="http://www.w3.org/2000/svg" xmlns:xlink="http://www.w3.org/1999/xlink">
    <!-- Generator: Sketch 60 (88103) - https://sketch.com -->
    <title>NodeB</title>
    <desc>Created with Sketch.</desc>
    <g id="页面-1" stroke="none" stroke-width="1" fill="none" fill-rule="evenodd">
        <g id="NodeB" transform="translate(1.000000, 1.000000)">
            <g id="bg/round-FFFFFF" fill="#FFFFFF" stroke="#666666">
                <rect id="Rectangle" x="0" y="0" width="64" height="64" rx="5"></rect>
            </g>
            <g id="信号-(1)" transform="translate(19.000000, 27.000000)" fill="#333333" fill-rule="nonzero">
                <path d="M6.75219665,3.13270921 C5.04985356,4.6201569 3.97114017,6.80708159 3.97114017,9.24891213 C3.97114017,11.6739226 5.04144351,13.850272 6.72903766,15.3393201 L6.74378661,15.3224686 C7.0366318,15.5268515 7.6265272,15.2466213 8.07953975,14.6783159 C8.50933054,14.1431485 8.6610251,13.5406067 8.4440272,13.2751255 L8.47773013,13.2372176 C7.29787657,12.2175 6.55205021,10.7174059 6.55205021,9.04035565 C6.55205021,7.47069038 7.2009728,6.06546025 8.24388075,5.05415272 C8.25439331,5.0457113 8.26703975,5.0457113 8.27758368,5.03730126 C8.53038703,4.83715481 8.39764644,4.24933054 7.97206067,3.73104603 C7.55701883,3.21696653 7.02188285,2.9641318 6.7648431,3.14956067 L6.75219665,3.13270921 L6.75219665,3.13270921 Z M4.29982218,0.00398535565 C4.27452929,0.027207113 4.24926778,0.0524686192 4.22187238,0.0735251046 C4.21763598,0.0777615063 4.20922594,0.079832636 4.20498954,0.0840690377 C4.19237448,0.0924790795 4.18813808,0.105125523 4.17972803,0.111464435 C1.62621339,2.33209205 0.0060251046,5.60193515 0.0060251046,9.24891213 C0.0060251046,12.8853452 1.61566946,16.1441423 4.15656904,18.3626674 C4.1734205,18.3816527 4.18606695,18.4027092 4.20498954,18.4195607 C4.48942469,18.6470711 5.09620293,18.3648013 5.55762552,17.7874895 C6.01060669,17.2207531 6.15596234,16.584477 5.89261506,16.3463912 L5.90312762,16.3337762 C3.9290272,14.6066736 2.67753138,12.076318 2.67753138,9.24891213 C2.67753138,6.39411088 3.95218619,3.84269874 5.95368201,2.11506276 L5.94106695,2.10031381 C6.12856695,1.82432008 5.97476987,1.2365272 5.55552301,0.718242678 C5.1467887,0.20416318 4.62850418,-0.0739330544 4.31457113,0.0271757322 L4.29982218,0.00398535565 Z M19.2938598,15.368818 C20.9961715,13.8819038 22.0748849,11.6949791 22.0748849,9.25311715 C22.0748849,6.82813808 21.004613,4.65175732 19.3169874,3.16220711 L19.3043724,3.17905858 C19.0093933,2.97467573 18.4194979,3.25490586 17.9686192,3.82374477 C17.5366946,4.35888075 17.385,4.96145397 17.6020293,5.22690377 L17.5683264,5.2648431 C18.7481485,6.28245816 19.4960774,7.78465481 19.4960774,9.46170502 C19.4960774,11.0313075 18.8450523,12.4366004 17.8021444,13.4479079 C17.7916318,13.4541841 17.7811192,13.4541841 17.7684728,13.4647594 C17.5156381,13.6649059 17.6504812,14.2527301 18.0739644,14.7710146 C18.4890377,15.2845293 19.0241736,15.537364 19.281182,15.3519665 L19.2938285,15.368818 L19.2938598,15.368818 Z M21.7483368,18.4975105 C21.7715601,18.4721802 21.7969377,18.448913 21.8241841,18.4279707 C21.8283891,18.4237657 21.8389331,18.4216946 21.8431381,18.4174268 C21.8536506,18.4069142 21.857887,18.3964017 21.8663285,18.3900628 C24.4198431,16.1694351 26.0400314,12.9000941 26.0400314,9.25311715 C26.0400314,5.61458159 24.430387,2.35738494 21.8894874,0.138828452 C21.8747385,0.119874477 21.8599895,0.0967154812 21.8431381,0.0819665272 C21.5587029,-0.145575314 20.9519247,0.136725941 20.488431,0.714006276 C20.0354498,1.28074268 19.8900628,1.91701883 20.1534414,2.1551046 L20.1428975,2.16775105 C22.1170293,3.89538703 23.3685251,6.4257113 23.3685251,9.25311715 C23.3685251,12.1079184 22.0959728,14.6593305 20.0944456,16.3864644 L20.1049895,16.4012134 C19.9174582,16.6771757 20.0712552,17.2629289 20.4905335,17.7832845 C20.8992678,18.297364 21.4175209,18.5754603 21.7314854,18.4722176 L21.7483368,18.4975105 L21.7483368,18.4975105 Z M21.3185146,28.1996234 L14.7071548,12.2491004 C15.324477,11.7413598 15.7248013,10.982887 15.7248013,10.1232741 C15.7248013,8.59368201 14.4859205,7.35273013 12.9589958,7.35273013 C11.4315063,7.35273013 10.1947908,8.59578452 10.1947908,10.1232741 C10.1947908,11.0523954 10.6582845,11.874069 11.3683054,12.3733996 L4.77385983,28.2691632 C4.7675523,28.2880858 4.75911088,28.3028661 4.75700837,28.3176151 L4.72961297,28.3766109 L4.7359205,28.3787134 C4.69380753,28.5008787 4.66638825,28.6294456 4.66638825,28.7684623 C4.66437649,29.0941142 4.79255036,29.4070787 5.02242738,29.6377513 C5.2523044,29.8684239 5.56482419,29.9976783 5.89048117,29.9967752 C6.2160357,29.9978984 6.52858256,29.8690726 6.75878576,29.6388694 C6.98898896,29.4086662 7.11781473,29.0961194 7.1166841,28.7705649 L8.68208159,24.8496967 L17.4861402,24.8496967 L19.0388912,28.5114226 C19.0178661,28.5957113 19.0115272,28.68 19.0115272,28.7705649 C19.0103966,29.0961139 19.1392181,29.408656 19.3694145,29.6388583 C19.5996109,29.8690606 19.9121496,29.99789 20.2376987,29.9967752 C20.9119142,29.9967752 21.4638703,29.4510565 21.4638703,28.7705649 C21.4638703,28.5641109 21.4049372,28.3723431 21.318546,28.1996234 L21.3185146,28.1996234 Z M12.9611297,14.1326046 L15.0042678,18.9715795 L11.0270397,18.9715795 L12.9611297,14.1326046 Z M9.27624477,23.3622803 L10.3802197,20.5959414 L15.6910983,20.5959414 L16.8604079,23.3622803 L9.27624477,23.3622803 Z" id="Shape"></path>
            </g>
            <text font-family="HelveticaNeue-Medium, Helvetica Neue" font-size="14" font-weight="400" fill="#4A4A4A">
                <tspan x="10.198" y="21">NodeB</tspan>
            </text>
        </g>
    </g>
</svg>