<?xml version="1.0" encoding="UTF-8"?>
<svg width="64px" height="64px" viewBox="0 0 64 64" version="1.1" xmlns="http://www.w3.org/2000/svg" xmlns:xlink="http://www.w3.org/1999/xlink">
    <!-- Generator: Sketch 60 (88103) - https://sketch.com -->
    <title>ODF</title>
    <desc>Created with Sketch.</desc>
    <g id="ODF" stroke="none" stroke-width="1" fill="none" fill-rule="evenodd">
        <g id="MDF">
            <g id="round-bg" opacity="0" fill="#FFFFFF" stroke="#666666">
                <rect id="Rectangle" x="0" y="0" width="64" height="64" rx="5"></rect>
            </g>
            <text id="ODF" font-family="HelveticaNeue, Helvetica Neue" font-size="14" font-weight="normal" fill="#333333">
                <tspan x="18.234" y="21">ODF</tspan>
            </text>
            <path d="M43,51.8 L43,54 L21,54 L21,51.8 L43,51.8 Z M43,51.8 L40.8,51.8 L40.8,49.6 L36.399,49.6 L36.4,51.8 L34.2,51.8 L34.199,49.6 L29.799,49.6 L29.8,51.8 L27.6,51.8 L27.599,49.6 L23.199,49.6 L23.2,51.8 L21,51.8 L21,32 L43,32 L43,51.8 Z M27.599,45.2 L23.199,45.2 L23.199,47.4 L27.599,47.4 L27.599,45.2 Z M34.199,45.2 L29.799,45.2 L29.799,47.4 L34.199,47.4 L34.199,45.2 Z M40.8,45.2 L36.399,45.2 L36.399,47.4 L40.8,47.4 L40.8,45.2 Z M34.199,40.8 L29.799,40.8 L29.799,42.999 L34.199,43 L34.199,40.8 Z M40.8,40.8 L36.399,40.8 L36.399,43 L40.8,43 L40.8,40.8 Z M27.599,40.8 L23.199,40.8 L23.199,42.999 L27.599,42.999 L27.599,40.8 Z M27.599,34.199 L23.199,34.199 L23.199,38.6 L27.599,38.6 L27.599,34.199 Z M34.199,34.199 L29.799,34.199 L29.799,38.6 L34.199,38.6 L34.199,34.199 Z M40.8,34.199 L36.399,34.199 L36.399,38.6 L40.8,38.6 L40.8,34.199 Z" id="形状结合备份" fill="#333333"></path>
        </g>
    </g>
</svg>