<?xml version="1.0" encoding="UTF-8"?>
<svg width="66px" height="66px" viewBox="0 0 66 66" version="1.1" xmlns="http://www.w3.org/2000/svg" xmlns:xlink="http://www.w3.org/1999/xlink">
    <!-- Generator: Sketch 60 (88103) - https://sketch.com -->
    <title>ODU</title>
    <desc>Created with Sketch.</desc>
    <g id="页面-1" stroke="none" stroke-width="1" fill="none" fill-rule="evenodd">
        <g id="ODU" transform="translate(1.000000, 1.000000)">
            <g id="bg/round-FFFFFF" transform="translate(-0.000000, 0.000000)" fill="#FFFFFF" stroke="#666666">
                <rect id="Rectangle" x="0" y="0" width="64" height="64" rx="5"></rect>
            </g>
            <text font-family="HelveticaNeue-Medium, Helvetica Neue" font-size="14" font-weight="400" fill="#4A4A4A">
                <tspan x="17.072" y="21">ODU</tspan>
            </text>
            <g id="喇叭" transform="translate(13.000000, 25.000000)" fill-rule="nonzero">
                <rect id="矩形" fill="#000000" opacity="0" x="0" y="0" width="35" height="35"></rect>
                <path d="M25.3514844,27.1359375 C25.1141406,27.2753906 24.9271094,27.34375 24.6919531,27.34375 C24.0532031,27.34375 23.5325781,26.8351563 23.5325781,26.2007813 C23.5325781,25.7616406 23.7863281,25.388125 24.180625,25.1786719 C27.0555469,23.5424219 28.8646094,20.5400781 28.8646094,17.2309375 C28.8646094,13.9245313 27.0577344,10.9227344 24.1767969,9.28101563 C23.7901563,9.07484375 23.515625,8.69421875 23.515625,8.25289063 C23.515625,7.61851563 24.0373438,7.109375 24.6755469,7.109375 C24.9052344,7.109375 25.0802344,7.17226562 25.3225,7.3084375 C28.9154688,9.35375 31.171875,13.0992969 31.171875,17.2309375 C31.171875,21.3521875 28.9253125,25.090625 25.3514844,27.1359375 Z M26.25,18.0632813 C26.25,20.4925 24.863125,22.6909375 22.6603125,23.8864063 C22.4525,23.9875781 22.2217188,24.0630469 22.0275781,24.0630469 C21.3822656,24.0630469 20.8490625,23.5664844 20.8490625,22.9397656 C20.8509447,22.5265183 21.0800158,22.1478153 21.4451563,21.9542969 C22.9457812,21.1602344 23.8864063,19.6864062 23.8864063,18.0632812 C23.8864063,16.4117187 22.9113281,14.914375 21.3707813,14.1317969 C21.004375,13.9239844 20.78125,13.5597656 20.78125,13.1567187 C20.78125,12.5289063 21.3139063,12.03125 21.9592188,12.03125 C21.9991406,12.03125 22.04125,12.0339844 22.0833594,12.0389063 C22.2376394,12.0609124 22.3880498,12.1045443 22.5301563,12.1685156 C24.8117187,13.3546875 26.25,15.588125 26.25,18.0627344 L26.25,18.0632813 Z M13.8583594,27.0402344 C11.8004688,25.5986719 10.6919531,24.9457031 10.2604688,24.7871094 L6.8446875,24.7871094 C6.81296875,24.7871094 6.81296875,24.7871094 6.79,24.7854688 L6.7790625,24.7849219 L6.76648438,24.7838281 L5.59726563,24.784375 C4.46304688,24.784375 3.828125,24.1576563 3.828125,23.0660938 L3.828125,11.9311719 C3.828125,10.8007812 4.36953125,10.2134375 5.59726563,10.2134375 L10.8992188,10.2123438 C11.3110156,10.0433594 12.3134375,9.39585938 14.1274219,7.98984375 C15.1921875,7.16515625 17.0909375,5.6109375 16.8650781,5.78046875 C17.1126549,5.57678965 17.4238689,5.46647126 17.7444531,5.46871539 C17.9320313,5.46871539 18.1196094,5.50703125 18.2946094,5.58085938 C18.7851563,5.7903125 19.10125,6.25515625 19.10125,6.77140625 L19.1017969,8.35460938 L19.1017969,8.93046875 L19.1023438,10.6684375 C19.1278723,10.7623737 19.1406259,10.8592974 19.1406259,10.9566406 L19.1209375,19.5934375 L19.1209375,19.6251563 L19.1078125,25.5423438 L19.10125,28.2296875 C19.10125,28.7317188 18.8004688,29.1878125 18.3301563,29.404375 C17.8628826,29.6178121 17.3164439,29.5597516 16.9044531,29.2528906 L16.8989844,29.2485156 C16.5725,28.9936719 15.0549219,27.8775 13.8583594,27.0402344 L13.8583594,27.0402344 Z M16.2591406,9.13117188 C13.8009375,11.0233594 12.5119531,11.8267188 11.6336719,12.0575 L11.6336719,23.1967969 C12.5048438,23.5971094 13.8211719,24.4097656 15.833125,25.8108594 C16.2733594,26.1171094 16.7267188,26.4375781 17.1784375,26.7624219 C17.1807994,24.1753385 17.1831692,21.5882552 17.1855469,19.0011719 L17.1855469,18.4592187 L17.1932031,10.9101562 C17.1828194,10.8418741 17.1820831,10.7724715 17.1910156,10.7039844 C17.1922795,10.6903463 17.1930093,10.6766639 17.1932031,10.6629687 L17.1855469,9.15796875 L17.1855469,9.13992187 L17.1817188,8.41039062 C16.8645313,8.66195312 16.559375,8.90039062 16.2596875,9.13117187 L16.2591406,9.13117188 Z M9.71578125,12.1334691 L6.23984375,12.1334691 C5.8515625,12.1334691 5.86414063,12.1209375 5.86414063,12.5092188 L5.86414063,22.5755469 C5.86414063,22.8774219 5.84554688,22.8495312 6.04023438,22.8495312 L9.71632813,22.8495312 L9.71632813,12.1334691 L9.71578125,12.1334691 Z" id="形状" fill="#333333" transform="translate(17.500000, 17.500158) scale(-1, 1) translate(-17.500000, -17.500158) "></path>
            </g>
        </g>
    </g>
</svg>