<?xml version="1.0" encoding="UTF-8"?>
<svg width="64px" height="64px" viewBox="0 0 64 64" version="1.1" xmlns="http://www.w3.org/2000/svg" xmlns:xlink="http://www.w3.org/1999/xlink">
    <!-- Generator: Sketch 60 (88103) - https://sketch.com -->
    <title>OLT</title>
    <desc>Created with Sketch.</desc>
    <g id="OLT" stroke="none" stroke-width="1" fill="none" fill-rule="evenodd">
        <g>
            <g id="round-bg" opacity="0" fill="#FFFFFF" stroke="#666666">
                <rect id="Rectangle" x="0" y="0" width="64" height="64" rx="5"></rect>
            </g>
            <text font-family="HelveticaNeue, Helvetica Neue" font-size="14" font-weight="normal" fill="#333333">
                <tspan x="19.914" y="21">OLT</tspan>
            </text>
            <path d="M43,48 L43,54 L21,54 L21,48 L43,48 Z M25,50 L23,50 L23,52 L25,52 L25,50 Z M29,50 L27,50 L27,52 L29,52 L29,50 Z M33,50 L31,50 L31,52 L33,52 L33,50 Z M41,50 L37,50 L37,52 L41,52 L41,50 Z M43,40 L43,46 L21,46 L21,40 L43,40 Z M25,42 L23,42 L23,44 L25,44 L25,42 Z M29,42 L27,42 L27,44 L29,44 L29,42 Z M33,42 L31,42 L31,44 L33,44 L33,42 Z M41,42 L37,42 L37,44 L41,44 L41,42 Z M43,32 L43,38 L21,38 L21,32 L43,32 Z M25,34 L23,34 L23,36 L25,36 L25,34 Z M29,34 L27,34 L27,36 L29,36 L29,34 Z M33,34 L31,34 L31,36 L33,36 L33,34 Z M41,34 L37,34 L37,36 L41,36 L41,34 Z" id="形状结合备份-3" fill="#333333"></path>
        </g>
    </g>
</svg>