<?xml version="1.0" encoding="UTF-8"?>
<svg width="66px" height="66px" viewBox="0 0 66 66" version="1.1" xmlns="http://www.w3.org/2000/svg" xmlns:xlink="http://www.w3.org/1999/xlink">
    <!-- Generator: Sketch 60 (88103) - https://sketch.com -->
    <title>ONT</title>
    <desc>Created with Sketch.</desc>
    <g id="页面-1" stroke="none" stroke-width="1" fill="none" fill-rule="evenodd">
        <g id="ONT" transform="translate(1.000000, 1.000000)">
            <g id="bg/round-efefef" fill="#EFEFEF" stroke="#666666">
                <rect id="Rectangle" x="0" y="0" width="64" height="64" rx="5"></rect>
            </g>
            <g id="Group-16" transform="translate(15.000000, 31.000000)" fill="#333333">
                <path d="M3.82758621,3.19744231e-14 L3.82758621,24.2413793 L0,17.862069 L0,6.37931034 L3.82758621,3.19744231e-14 Z M33.1724138,3.19744231e-14 L37,6.37931034 L37,17.862069 L33.1724138,24.2413793 L33.1724138,3.19744231e-14 Z M29.1248514,1.27586207 L31.8965517,3.58561237 L29.1248514,5.89536266 L29.1244483,4.49686207 L26.1820876,4.49706733 C24.2990666,4.49706733 22.5959157,5.26718285 21.3704143,6.50963459 L21.3966904,6.52261822 C23.576096,7.64317926 25.0669371,9.91422161 25.0669371,12.5334686 C25.0669371,14.3981811 24.3113192,16.0864096 23.0895713,17.3086661 L23.1174914,17.2805711 L23.1174914,17.2805711 C23.9707373,17.7152338 24.9293277,17.974318 25.9448286,18.0093554 L26.1820876,18.0134423 L28.6624483,18.0128621 L28.6629013,16.520214 L31.4346017,18.8299643 L28.6629013,21.1397146 L28.6624483,19.7758621 L26.1332497,19.7760118 C24.4531759,19.7760118 22.8861875,19.2918357 21.5642062,18.4554052 L21.5849665,18.4437114 C20.6154754,18.9816815 19.4997004,19.2880325 18.3123732,19.2880325 C17.2079241,19.2880325 16.1653867,19.0229568 15.2449106,18.5529549 L15.2617924,18.561545 L15.2617924,18.561545 C14.0583024,19.2845274 12.6620149,19.7190364 11.1684669,19.7707921 L10.8667503,19.7760118 L8.33644828,19.7758621 L8.33709869,21.1397146 L5.56539834,18.8299643 L8.33709869,16.520214 L8.33644828,18.0128621 L10.8179124,18.0134423 L11.0551714,18.0093554 C11.971623,17.9777354 12.8417244,17.7636432 13.6302738,17.4022805 L13.6148272,17.3870518 C12.3463534,16.159108 11.5578093,14.4383754 11.5578093,12.5334686 C11.5578093,9.78988655 13.1935497,7.42835217 15.5429926,6.37090312 L15.5055043,6.38791437 L15.5055043,6.38791437 C14.3439682,5.26803233 12.7818353,4.5607286 11.0551714,4.5011542 L10.8179124,4.49706733 L7.87444828,4.49686207 L7.87514863,5.89536266 L5.10344828,3.58561237 L7.87514863,1.27586207 L7.87444828,2.66086207 L10.8667503,2.66171225 C13.548812,2.66171225 15.9426781,3.8956242 17.5116413,5.82674084 L17.4851972,5.82904719 C17.7562887,5.79594565 18.0323409,5.77890467 18.3123732,5.77890467 C18.7019183,5.77890467 19.0837615,5.81188036 19.4552637,5.87519258 L19.4512794,5.87451479 C21.0182948,3.91583255 23.4293145,2.66171225 26.1332497,2.66171225 L29.1244483,2.66086207 L29.1248514,1.27586207 Z M18.3123732,7.43002028 C15.4938166,7.43002028 13.2089249,9.71491191 13.2089249,12.5334686 C13.2089249,15.3520252 15.4938166,17.6369168 18.3123732,17.6369168 C21.1309299,17.6369168 23.4158215,15.3520252 23.4158215,12.5334686 C23.4158215,9.71491191 21.1309299,7.43002028 18.3123732,7.43002028 Z" id="形状结合"></path>
            </g>
            <text font-family="HelveticaNeue-Medium, Helvetica Neue" font-size="14" font-weight="400" fill="#4A4A4A">
                <tspan x="17.975" y="21">ONT</tspan>
            </text>
        </g>
    </g>
</svg>