<?xml version="1.0" encoding="UTF-8"?>
<svg width="66px" height="66px" viewBox="0 0 66 66" version="1.1" xmlns="http://www.w3.org/2000/svg" xmlns:xlink="http://www.w3.org/1999/xlink">
    <!-- Generator: Sketch 60 (88103) - https://sketch.com -->
    <title>PGW</title>
    <desc>Created with Sketch.</desc>
    <g id="页面-1" stroke="none" stroke-width="1" fill="none" fill-rule="evenodd">
        <g id="PGW" transform="translate(1.000000, 1.000000)">
            <g id="bg/round-FFFFFF" fill="#FFFFFF" stroke="#666666">
                <rect id="Rectangle" x="0" y="0" width="64" height="64" rx="5"></rect>
            </g>
            <g id="交换任务" transform="translate(15.000000, 26.000000)" fill-rule="nonzero">
                <rect id="矩形" fill="#1CA6FF" opacity="0" x="0" y="0" width="34" height="34"></rect>
                <path d="M6.57748775,22.95 L6.57748775,24.45875 L7,24.458 L7,26.583 L6.59873775,26.58375 L6.59873775,28.0925 L2.13623775,25.52125 L6.57748775,22.95 Z M29.5390609,22.95 L34.0015609,25.52125 L29.5603109,28.0925 L29.5603109,26.58375 L29,26.583 L29,24.458 L29.5390609,24.45875 L29.5390609,22.95 Z M28,26.583 L27,26.583 L27,24.458 L28,24.458 L28,26.583 Z M25.2213889,24.45875 L26,24.458 L26,26.583 L25.2213889,26.58375 L25,26.58 L25,24.454 L25.2213889,24.45875 Z M9,24.458 L9,26.583 L8,26.583 L8,24.458 L9,24.458 Z M11.0010105,24.3611765 L11.0007803,26.5132898 C10.658587,26.5592978 10.2997833,26.5830631 9.92138889,26.58375 L10,26.582 L10.0011898,24.4578152 C10.3559263,24.4516597 10.6880912,24.4190057 11.0010105,24.3611765 Z M23.9999857,24.3380385 L23.9999892,26.5003599 C23.6576194,26.4535475 23.3241981,26.3874662 23.0003519,26.3032193 L22.999854,24.0060068 C23.3137907,24.1507454 23.643668,24.2620248 23.9999857,24.3380385 Z M13.0011378,23.5038357 L13.0010615,25.9193643 C12.6820477,26.0734337 12.3501966,26.201823 12.0013146,26.3033563 L12.0009664,24.0672593 C12.3582852,23.918901 12.6891997,23.7301079 13.0011378,23.5038357 Z M23.9996418,8.88307597 L23.9999645,11.445187 C23.6511433,11.7567018 23.3238328,12.1144695 23.0111495,12.5140951 L22.9991626,12.4535266 L22.9989994,9.57926697 C23.3223664,9.31884919 23.6547419,9.08628219 23.9996418,8.88307597 Z M6.56625,6.375 L6.56625,7.88375 L7,7.883 L7,10.008 L6.5875,10.00875 L6.5875,11.5175 L2.125,8.94625 L6.56625,6.375 Z M29.3763118,6.375 L33.8388118,8.94625 L29.3763118,11.5175 L29.3763118,10.00875 L29,10.008 L29,7.883 L29.3763118,7.88375 L29.3763118,6.375 Z M13.000871,8.75578097 L13.0002401,11.1471176 C12.6807554,10.9516392 12.3464873,10.7784413 12.0003367,10.6298219 L12.0005525,8.36680785 C12.3418388,8.47858789 12.6757551,8.60864154 13.000871,8.75578097 Z M26.0006437,8.08081062 L25.9999496,10.2788478 C25.6465575,10.3920097 25.3144097,10.5395339 24.9999855,10.7191726 L24.999971,8.39244397 C25.3209616,8.26524712 25.653762,8.16104416 26.0006437,8.08081062 Z M11.0006694,8.09691079 L11.0008561,10.2793571 C10.6741256,10.1894542 10.3400799,10.1208702 10.0007855,10.0752421 L10.0009264,7.93736743 C10.3385759,7.97321326 10.6722041,8.02671042 11.0006694,8.09691079 Z M28,7.883 L28,10.008 L27.7929878,10.00875 C27.5179086,10.0101732 27.2538909,10.0272895 26.9999936,10.059498 L26.9996452,7.92060506 C27.1556761,7.90598422 27.3145105,7.89567294 27.4763124,7.88974158 L27.7929878,7.88375 L28,7.883 Z M8,7.883 L9,7.883 L9,10.008 L8,10.008 L8,7.883 Z M16.0531319,9.375 L20.0896488,9.375 C20.6419336,9.375 21.0896488,9.82271525 21.0896488,10.375 L21.0896488,25.375 C21.0896488,25.9272847 20.6419336,26.375 20.0896488,26.375 L16.0531319,26.375 C15.5008472,26.375 15.0531319,25.9272847 15.0531319,25.375 L15.0531319,10.375 C15.0531319,9.82271525 15.5008472,9.375 16.0531319,9.375 Z" id="形状结合" fill="#333333"></path>
            </g>
            <text font-family="HelveticaNeue-Medium, Helvetica Neue" font-size="14" font-weight="400" fill="#4A4A4A">
                <tspan x="15.91" y="21">PGW</tspan>
            </text>
        </g>
    </g>
</svg>