<?xml version="1.0" encoding="UTF-8"?>
<svg width="66px" height="66px" viewBox="0 0 66 66" version="1.1" xmlns="http://www.w3.org/2000/svg" xmlns:xlink="http://www.w3.org/1999/xlink">
    <!-- Generator: Sketch 60 (88103) - https://sketch.com -->
    <title>RCP</title>
    <desc>Created with Sketch.</desc>
    <g id="页面-1" stroke="none" stroke-width="1" fill="none" fill-rule="evenodd">
        <g id="RCP" transform="translate(1.000000, 1.000000)">
            <g id="bg/round-FFFFFF" fill="#FFFFFF" stroke="#666666">
                <rect id="Rectangle" x="0" y="0" width="64" height="64" rx="5"></rect>
            </g>
            <g id="模型管理" transform="translate(14.000000, 23.000000)" fill-rule="nonzero">
                <rect id="矩形" fill="#000000" opacity="0" x="0" y="0" width="37" height="37"></rect>
                <path d="M18.6614554,22.2606728 C19.7498579,22.2606728 20.8108002,22.2606728 21.9266629,22.1078103 C25.6583287,21.5309768 26.2309555,21.1545206 27.9906197,19.9677356 C29.3899944,19.0505607 30.3229108,17.8276608 30.3229108,16.4518985 L30.3229108,13.2417863 C30.3229108,16.4518985 25.0363844,18.4391108 18.6614554,18.4391108 C12.2865265,18.4391108 7,16.4518985 7,13.2417863 L7,16.4518985 C7,19.6620106 12.1310404,22.2606728 18.6614554,22.2606728 Z M18.6614554,27.9347195 C19.7498579,27.9347195 20.8108002,27.9347195 21.9266629,27.781857 C25.6583287,27.2050235 26.2309555,26.8285673 27.9906197,25.6417822 C29.3899944,24.7246074 30.3229108,23.5017075 30.3229108,22.1259452 L30.3229108,18.915833 C30.3229108,22.1259452 25.0363844,24.1131574 18.6614554,24.1131574 C12.2865265,24.1131574 7,22.1259452 7,18.915833 L7,22.1259452 C7,25.3360573 12.1310404,27.9347195 18.6614554,27.9347195 Z M18.6614554,34.4101908 C19.7498579,34.4101908 20.8108002,34.4101908 21.9266629,34.2573283 C25.6583287,33.6804948 26.2309555,33.3040386 27.9906197,32.1172536 C29.3899944,31.2000787 30.3229108,29.9771788 30.3229108,28.6014165 L30.3229108,25.3913043 C30.3229108,28.6014165 25.0363844,30.5886288 18.6614554,30.5886288 C12.2865265,30.5886288 7,28.6014165 7,25.3913043 L7,28.6014165 C7,31.8115286 12.1310404,34.4101908 18.6614554,34.4101908 Z M18.6614554,16.4518985 C25.0363844,16.4518985 30.3229108,13.8532363 30.3229108,10.6431241 L30.3229108,8.80877434 C30.3229108,5.5986622 25.0363844,3 18.6614554,3 C12.2865265,3 7,5.5986622 7,8.80877434 L7,10.6431241 C7,13.8532363 12.1310404,16.4518985 18.6614554,16.4518985 Z" id="形状" fill="#333333"></path>
            </g>
            <text font-family="HelveticaNeue-Medium, Helvetica Neue" font-size="14" font-weight="400" fill="#4A4A4A">
                <tspan x="17.849" y="21">RCP</tspan>
            </text>
        </g>
    </g>
</svg>