<?xml version="1.0" encoding="UTF-8"?>
<svg width="66px" height="66px" viewBox="0 0 66 66" version="1.1" xmlns="http://www.w3.org/2000/svg" xmlns:xlink="http://www.w3.org/1999/xlink">
    <!-- Generator: Sketch 60 (88103) - https://sketch.com -->
    <title>RNC</title>
    <desc>Created with Sketch.</desc>
    <g id="页面-1" stroke="none" stroke-width="1" fill="none" fill-rule="evenodd">
        <g id="RNC" transform="translate(1.000000, 1.000000)">
            <g id="bg/round-FFFFFF" fill="#FFFFFF" stroke="#666666">
                <rect id="Rectangle" x="0" y="0" width="64" height="64" rx="5"></rect>
            </g>
            <g id="Combined-Distribution-Cabinet" transform="translate(12.000000, 25.000000)">
                <rect id="矩形" fill="#19A5FF" fill-rule="nonzero" opacity="0" x="3" y="0" width="34" height="34"></rect>
                <path d="M15.1094574,8.70354239 C16.8049357,7.7868666 19.8858541,7.76283448 21.9908812,8.64986516 C23.8345279,9.42675354 24.3640283,10.6448368 23.3828687,11.5512077 L32.0478796,15.149063 C33.6681535,14.540612 36.1554874,14.6186434 37.9991341,15.3955318 C40.1041612,16.2825625 40.6327559,17.7447555 39.1797833,18.6614313 C37.9072258,19.4642837 35.4908038,19.5824082 33.4412646,19.00343 L26.3460382,23.3854433 C27.9883907,24.272298 28.3504786,25.4936051 27.0779212,26.2964576 C25.6249486,27.2131334 22.531347,27.2371655 20.1681687,26.3501348 C18.0981234,25.5731331 17.3211012,24.3548079 18.1916308,23.4483958 L8.73367762,19.8506707 C7.00220646,20.4594108 4.26677965,20.3814699 2.19673444,19.6044682 C-0.166443906,18.7174375 -0.707721761,17.2552445 0.987756513,16.3385687 C2.47292444,15.5355992 5.13580196,15.4175574 7.30705183,15.9968234 L15.2621793,11.6149448 C13.7407325,10.7280583 13.6242895,9.50651197 15.1094574,8.70354239 Z M10.3929624,18.165647 C10.4918996,18.5723723 10.3666933,18.9758487 10,19.3320909 L19.4148263,23 C20.8349461,22.4675533 22.9714931,22.4507573 24.8148628,22.9575907 L32,18.4903926 C31.7338839,18.3356397 31.5059182,18.1708921 31.3176381,18 L10.3929624,18.165647 Z M16.8894981,12.0429368 L9,16.5100296 C9.2760728,16.6646593 9.51156269,16.8292628 9.70523995,17 L30.6268147,16.8343619 C30.531924,16.4275049 30.6515542,16.023899 31,15.6675772 L22.2618693,12 C20.8004526,12.532593 18.6748398,12.5495647 16.8894981,12.0429368 Z" id="形状结合" fill="#333333"></path>
            </g>
            <text font-family="HelveticaNeue-Medium, Helvetica Neue" font-size="14" font-weight="400" fill="#4A4A4A">
                <tspan x="17.464" y="21">RNC</tspan>
            </text>
        </g>
    </g>
</svg>