<?xml version="1.0" encoding="UTF-8"?>
<svg width="66px" height="66px" viewBox="0 0 66 66" version="1.1" xmlns="http://www.w3.org/2000/svg" xmlns:xlink="http://www.w3.org/1999/xlink">
    <!-- Generator: Sketch 60 (88103) - https://sketch.com -->
    <title>SPDH</title>
    <desc>Created with Sketch.</desc>
    <g id="页面-1" stroke="none" stroke-width="1" fill="none" fill-rule="evenodd">
        <g id="SPDH" transform="translate(1.000000, 1.000000)">
            <g id="bg/round-efefef" fill="#EFEFEF" stroke="#666666">
                <rect id="Rectangle" x="0" y="0" width="64" height="64" rx="5"></rect>
            </g>
            <path d="M25.5,36 C28.5375661,36 31,38.4624339 31,41.5 C31,44.5375661 28.5375661,47 25.5,47 C22.8042125,47 20.5614139,45.060524 20.0908358,42.5008036 L15.2217778,42.4992222 L15.2222222,45.2222222 L10.7777778,41.2222222 L15.2222222,37.2222222 L15.2217778,40.4992222 L20.0906529,40.5001919 C20.5608324,37.9399789 22.803863,36 25.5,36 Z M37.5,36 C40.196137,36 42.4391676,37.9399789 42.9093471,40.5001919 L47.777,40.499 L47.7777778,37.5 L52.2222222,41.5 L47.7777778,45.5 L47.777,42.499 L42.9091642,42.5008036 C42.4385861,45.060524 40.1957875,47 37.5,47 C34.4624339,47 32,44.5375661 32,41.5 C32,38.4624339 34.4624339,36 37.5,36 Z M25.5,37.5714286 C23.3303099,37.5714286 21.5714286,39.3303099 21.5714286,41.5 C21.5714286,43.6696901 23.3303099,45.4285714 25.5,45.4285714 C27.6696901,45.4285714 29.4285714,43.6696901 29.4285714,41.5 C29.4285714,39.3303099 27.6696901,37.5714286 25.5,37.5714286 Z M37.5,37.5714286 C35.3303099,37.5714286 33.5714286,39.3303099 33.5714286,41.5 C33.5714286,43.6696901 35.3303099,45.4285714 37.5,45.4285714 C39.6696901,45.4285714 41.4285714,43.6696901 41.4285714,41.5 C41.4285714,39.3303099 39.6696901,37.5714286 37.5,37.5714286 Z" id="形状结合" fill="#333333"></path>
            <text font-family="HelveticaNeue-Medium, Helvetica Neue" font-size="14" font-weight="400" fill="#4A4A4A">
                <tspan x="13.187" y="21">SPDH</tspan>
            </text>
        </g>
    </g>
</svg>